<?xml version="1.0" encoding="UTF-8"?>
<!DOCTYPE svg PUBLIC "-//W3C//DTD SVG 1.1//EN" "http://www.w3.org/Graphics/SVG/1.1/DTD/svg11.dtd">
<svg xmlns="http://www.w3.org/2000/svg" version="1.1" width="313px" height="196px" style="shape-rendering:geometricPrecision; text-rendering:geometricPrecision; image-rendering:optimizeQuality; fill-rule:evenodd; clip-rule:evenodd" xmlns:xlink="http://www.w3.org/1999/xlink">
<g><path style="opacity:1" fill="#010000" d="M -0.5,-0.5 C 36.8333,-0.5 74.1667,-0.5 111.5,-0.5C 111.5,2.16667 111.5,4.83333 111.5,7.5C 108.833,7.5 106.167,7.5 103.5,7.5C 103.5,10.1667 103.5,12.8333 103.5,15.5C 100.833,15.5 98.1667,15.5 95.5,15.5C 95.4778,19.5932 94.8112,23.5932 93.5,27.5C 94.1045,39.8645 94.7712,52.1978 95.5,64.5C 94.2954,66.1376 92.9621,66.4709 91.5,65.5C 92.0253,64.8076 92.6919,64.3076 93.5,64C 91.6787,61.544 91.012,58.7107 91.5,55.5C 90.5,55.5 89.5,55.5 88.5,55.5C 88.4879,67.4274 87.8212,67.4274 86.5,55.5C 85.52,58.0865 85.1866,60.7531 85.5,63.5C 81.7002,63.8194 81.5335,64.8194 85,66.5C 85.0674,69.047 85.9007,71.2137 87.5,73C 85.9419,73.21 84.6085,73.71 83.5,74.5C 79.8333,74.5 76.1667,74.5 72.5,74.5C 62.0086,74.5372 52.3419,77.2038 43.5,82.5C 38.5142,83.4231 33.8475,85.0898 29.5,87.5C 25.8062,90.5271 22.4729,93.8604 19.5,97.5C 17.8333,98.5 16.5,99.8333 15.5,101.5C 11.6973,104.893 10.0306,109.227 10.5,114.5C 10.5,115.5 10.5,116.5 10.5,117.5C 6.78519,117.423 3.11853,117.756 -0.5,118.5C -0.5,78.8333 -0.5,39.1667 -0.5,-0.5 Z"/></g>
<g><path style="opacity:1" fill="#090804" d="M 111.5,-0.5 C 178.5,-0.5 245.5,-0.5 312.5,-0.5C 312.5,11.1667 312.5,22.8333 312.5,34.5C 311.883,34.6107 311.383,34.944 311,35.5C 306.632,31.4011 301.465,29.7344 295.5,30.5C 295.5,29.5 295.5,28.5 295.5,27.5C 292.833,27.5 290.167,27.5 287.5,27.5C 287.5,26.1667 287.5,24.8333 287.5,23.5C 281.447,24.5099 276.447,22.8433 272.5,18.5C 271.051,19.617 269.384,20.2837 267.5,20.5C 260.859,19.6683 254.192,19.3349 247.5,19.5C 247.5,18.1667 247.5,16.8333 247.5,15.5C 244.833,15.5 242.167,15.5 239.5,15.5C 239.5,14.5 239.5,13.5 239.5,12.5C 228.828,12.3335 218.161,12.5002 207.5,13C 199.602,14.8205 191.602,15.6539 183.5,15.5C 183.5,12.8333 183.5,10.1667 183.5,7.5C 175.5,7.5 167.5,7.5 159.5,7.5C 159.5,10.1667 159.5,12.8333 159.5,15.5C 148.833,16.1667 148.833,16.8333 159.5,17.5C 159.5,18.8333 159.5,20.1667 159.5,21.5C 154.212,20.3543 149.212,20.8543 144.5,23C 143.556,25.7191 143.223,28.5525 143.5,31.5C 140.833,31.5 138.167,31.5 135.5,31.5C 135.5,34.1667 135.5,36.8333 135.5,39.5C 132.167,39.5 128.833,39.5 125.5,39.5C 124.833,50.1667 124.167,50.1667 123.5,39.5C 122.5,39.5 121.5,39.5 120.5,39.5C 121.075,45.1667 121.242,50.8333 121,56.5C 119.129,55.3322 117.629,55.8322 116.5,58C 119.167,57.6667 121.833,57.3333 124.5,57C 119.352,60.0141 114.185,62.1808 109,63.5C 108,64.5 107,65.5 106,66.5C 101.586,64.4336 97.5856,65.4336 94,69.5C 93.3333,70.5 93.3333,71.5 94,72.5C 97.6846,71.4935 100.685,69.4935 103,66.5C 104.766,67.2335 106.599,67.5668 108.5,67.5C 104.37,70.4032 100.037,73.0699 95.5,75.5C 93.1766,76.0584 90.8432,76.7251 88.5,77.5C 89.2427,78.1818 89.9094,78.8485 90.5,79.5C 87.5,79.5 84.5,79.5 81.5,79.5C 81.5,78.8333 81.5,78.1667 81.5,77.5C 82.0577,76.2101 83.0577,75.3768 84.5,75C 84.2716,74.6012 83.9382,74.4346 83.5,74.5C 84.6085,73.71 85.9419,73.21 87.5,73C 85.9007,71.2137 85.0674,69.047 85,66.5C 81.5335,64.8194 81.7002,63.8194 85.5,63.5C 85.1866,60.7531 85.52,58.0865 86.5,55.5C 87.8212,67.4274 88.4879,67.4274 88.5,55.5C 89.5,55.5 90.5,55.5 91.5,55.5C 91.012,58.7107 91.6787,61.544 93.5,64C 92.6919,64.3076 92.0253,64.8076 91.5,65.5C 92.9621,66.4709 94.2954,66.1376 95.5,64.5C 94.7712,52.1978 94.1045,39.8645 93.5,27.5C 94.8112,23.5932 95.4778,19.5932 95.5,15.5C 98.1667,15.5 100.833,15.5 103.5,15.5C 103.5,12.8333 103.5,10.1667 103.5,7.5C 106.167,7.5 108.833,7.5 111.5,7.5C 111.5,4.83333 111.5,2.16667 111.5,-0.5 Z"/></g>
<g><path style="opacity:1" fill="#11100c" d="M 312.5,34.5 C 312.5,37.8333 312.5,41.1667 312.5,44.5C 302.488,42.52 292.821,40.3534 283.5,38C 274.158,37.5662 264.825,37.0662 255.5,36.5C 255.5,37.5 255.5,38.5 255.5,39.5C 252.833,39.5 250.167,39.5 247.5,39.5C 247.5,38.5 247.5,37.5 247.5,36.5C 234.196,37.6606 221.196,39.9939 208.5,43.5C 204.519,41.8253 202.519,43.1587 202.5,47.5C 205.167,47.5 207.833,47.5 210.5,47.5C 214.702,48.2926 219.035,49.1259 223.5,50C 222.906,50.4643 222.239,50.631 221.5,50.5C 215.521,49.6693 209.521,49.0027 203.5,48.5C 192.5,48.5 181.5,48.5 170.5,48.5C 159.216,48.6242 148.216,50.4575 137.5,54C 127.812,58.5116 118.145,63.0116 108.5,67.5C 106.599,67.5668 104.766,67.2335 103,66.5C 100.685,69.4935 97.6846,71.4935 94,72.5C 93.3333,71.5 93.3333,70.5 94,69.5C 97.5856,65.4336 101.586,64.4336 106,66.5C 107,65.5 108,64.5 109,63.5C 114.185,62.1808 119.352,60.0141 124.5,57C 121.833,57.3333 119.167,57.6667 116.5,58C 117.629,55.8322 119.129,55.3322 121,56.5C 121.242,50.8333 121.075,45.1667 120.5,39.5C 121.5,39.5 122.5,39.5 123.5,39.5C 124.167,50.1667 124.833,50.1667 125.5,39.5C 128.833,39.5 132.167,39.5 135.5,39.5C 135.5,36.8333 135.5,34.1667 135.5,31.5C 138.167,31.5 140.833,31.5 143.5,31.5C 143.223,28.5525 143.556,25.7191 144.5,23C 149.212,20.8543 154.212,20.3543 159.5,21.5C 159.5,20.1667 159.5,18.8333 159.5,17.5C 148.833,16.8333 148.833,16.1667 159.5,15.5C 159.5,12.8333 159.5,10.1667 159.5,7.5C 167.5,7.5 175.5,7.5 183.5,7.5C 183.5,10.1667 183.5,12.8333 183.5,15.5C 191.602,15.6539 199.602,14.8205 207.5,13C 218.161,12.5002 228.828,12.3335 239.5,12.5C 239.5,13.5 239.5,14.5 239.5,15.5C 242.167,15.5 244.833,15.5 247.5,15.5C 247.5,16.8333 247.5,18.1667 247.5,19.5C 254.192,19.3349 260.859,19.6683 267.5,20.5C 269.384,20.2837 271.051,19.617 272.5,18.5C 276.447,22.8433 281.447,24.5099 287.5,23.5C 287.5,24.8333 287.5,26.1667 287.5,27.5C 290.167,27.5 292.833,27.5 295.5,27.5C 295.5,28.5 295.5,29.5 295.5,30.5C 301.465,29.7344 306.632,31.4011 311,35.5C 311.383,34.944 311.883,34.6107 312.5,34.5 Z"/></g>
<g><path style="opacity:1" fill="#20201c" d="M 312.5,44.5 C 312.5,47.5 312.5,50.5 312.5,53.5C 308.422,52.2981 304.422,50.7981 300.5,49C 276.894,42.8737 252.894,40.8737 228.5,43C 222.572,44.1295 216.572,45.6295 210.5,47.5C 207.833,47.5 205.167,47.5 202.5,47.5C 202.519,43.1587 204.519,41.8253 208.5,43.5C 221.196,39.9939 234.196,37.6606 247.5,36.5C 247.5,37.5 247.5,38.5 247.5,39.5C 250.167,39.5 252.833,39.5 255.5,39.5C 255.5,38.5 255.5,37.5 255.5,36.5C 264.825,37.0662 274.158,37.5662 283.5,38C 292.821,40.3534 302.488,42.52 312.5,44.5 Z"/></g>
<g><path style="opacity:1" fill="#faf7ea" d="M 170.5,48.5 C 181.5,48.5 192.5,48.5 203.5,48.5C 204.833,49.1667 206.167,49.8333 207.5,50.5C 206.833,50.5 206.167,50.5 205.5,50.5C 203.5,50.5 201.5,50.5 199.5,50.5C 189.833,49.8333 180.167,49.1667 170.5,48.5 Z"/></g>
<g><path style="opacity:1" fill="#2e2c29" d="M 312.5,53.5 C 312.5,57.1667 312.5,60.8333 312.5,64.5C 309.5,64.5 306.5,64.5 303.5,64.5C 303.5,63.5 303.5,62.5 303.5,61.5C 295.249,60.1399 287.583,57.3065 280.5,53C 275.718,52.8814 271.051,52.2148 266.5,51C 257.457,50.8979 248.457,50.7312 239.5,50.5C 238.392,52.6951 238.559,54.6951 240,56.5C 240.333,56.1667 240.667,55.8333 241,55.5C 243.082,56.9111 244.916,58.5778 246.5,60.5C 238.223,56.7474 229.89,53.414 221.5,50.5C 222.239,50.631 222.906,50.4643 223.5,50C 219.035,49.1259 214.702,48.2926 210.5,47.5C 216.572,45.6295 222.572,44.1295 228.5,43C 252.894,40.8737 276.894,42.8737 300.5,49C 304.422,50.7981 308.422,52.2981 312.5,53.5 Z"/></g>
<g><path style="opacity:1" fill="#44413c" d="M 199.5,50.5 C 201.5,50.5 203.5,50.5 205.5,50.5C 203.698,51.4582 201.698,52.1249 199.5,52.5C 195.837,51.8875 192.17,51.7208 188.5,52C 191.559,52.0577 193.892,53.391 195.5,56C 188.914,55.1821 182.248,54.6821 175.5,54.5C 175.569,57.0842 176.735,59.0842 179,60.5C 180.124,63.4424 180.458,66.4424 180,69.5C 179.717,66.2577 178.883,65.9244 177.5,68.5C 176.914,68.2907 176.414,67.9574 176,67.5C 174.806,68.4303 173.473,69.0969 172,69.5C 170.221,67.0539 167.888,65.3872 165,64.5C 164.417,66.0016 163.584,67.3349 162.5,68.5C 161.859,67.0065 160.859,66.0065 159.5,65.5C 159.116,63.0706 158.449,60.7373 157.5,58.5C 154.102,58.8204 150.768,58.487 147.5,57.5C 149.078,56.7022 150.744,56.2022 152.5,56C 150.381,55.6582 150.047,54.8249 151.5,53.5C 154.083,52.7761 156.749,51.9428 159.5,51C 172.829,50.5001 186.163,50.3334 199.5,50.5 Z"/></g>
<g><path style="opacity:1" fill="#d9d9d6" d="M 170.5,48.5 C 180.167,49.1667 189.833,49.8333 199.5,50.5C 186.163,50.3334 172.829,50.5001 159.5,51C 156.749,51.9428 154.083,52.7761 151.5,53.5C 149.473,53.3379 147.473,53.5045 145.5,54C 134.304,60.4304 122.637,66.0971 110.5,71C 107.441,74.2324 103.774,76.3991 99.5,77.5C 97.8295,77.3318 96.4961,76.6651 95.5,75.5C 100.037,73.0699 104.37,70.4032 108.5,67.5C 118.145,63.0116 127.812,58.5116 137.5,54C 148.216,50.4575 159.216,48.6242 170.5,48.5 Z"/></g>
<g><path style="opacity:1" fill="#6e3d1d" d="M 205.5,50.5 C 206.167,50.5 206.833,50.5 207.5,50.5C 213.228,50.0534 218.562,51.0534 223.5,53.5C 218.155,53.6865 212.822,54.0199 207.5,54.5C 206.66,57.6757 204.993,60.3424 202.5,62.5C 202.5,61.5 202.5,60.5 202.5,59.5C 198.731,58.9602 196.064,60.2935 194.5,63.5C 195.903,59.6637 197.57,55.997 199.5,52.5C 201.698,52.1249 203.698,51.4582 205.5,50.5 Z"/></g>
<g><path style="opacity:1" fill="#32312e" d="M 199.5,52.5 C 197.57,55.997 195.903,59.6637 194.5,63.5C 194.167,63.5 193.833,63.5 193.5,63.5C 192.1,64.0998 191.1,65.0998 190.5,66.5C 189.448,66.3505 188.448,66.5172 187.5,67C 185.596,70.5714 182.763,73.0714 179,74.5C 176.589,72.8466 175.422,73.5133 175.5,76.5C 169.5,76.5 163.5,76.5 157.5,76.5C 153.373,77.0751 149.373,78.0751 145.5,79.5C 131.5,78.1667 117.5,78.1667 103.5,79.5C 99.5,79.5 95.5,79.5 91.5,79.5C 91.8656,78.3054 92.699,77.6387 94,77.5C 95.6264,78.0182 97.293,78.3516 99,78.5C 103.659,77.0049 108.159,75.8383 112.5,75C 116.833,74.3333 121.167,74.3333 125.5,75C 122.937,75.763 122.937,76.263 125.5,76.5C 134.808,75.1699 144.141,74.0032 153.5,73C 157.497,72.2006 159.497,69.7006 159.5,65.5C 160.859,66.0065 161.859,67.0065 162.5,68.5C 163.584,67.3349 164.417,66.0016 165,64.5C 167.888,65.3872 170.221,67.0539 172,69.5C 173.473,69.0969 174.806,68.4303 176,67.5C 176.414,67.9574 176.914,68.2907 177.5,68.5C 178.883,65.9244 179.717,66.2577 180,69.5C 180.458,66.4424 180.124,63.4424 179,60.5C 176.735,59.0842 175.569,57.0842 175.5,54.5C 182.248,54.6821 188.914,55.1821 195.5,56C 193.892,53.391 191.559,52.0577 188.5,52C 192.17,51.7208 195.837,51.8875 199.5,52.5 Z"/></g>
<g><path style="opacity:1" fill="#c8b7a4" d="M 203.5,48.5 C 209.521,49.0027 215.521,49.6693 221.5,50.5C 229.89,53.414 238.223,56.7474 246.5,60.5C 253.19,64.6006 260.024,68.6006 267,72.5C 277.055,71.1021 286.888,72.1021 296.5,75.5C 300.271,79.3179 301.937,83.6512 301.5,88.5C 299.445,86.4451 297.779,84.1117 296.5,81.5C 293.167,75.0557 287.833,72.7224 280.5,74.5C 272.799,74.3089 265.132,74.6423 257.5,75.5C 256.167,75.5 255.5,74.8333 255.5,73.5C 258.309,73.0423 258.976,71.7089 257.5,69.5C 250.976,65.0701 243.976,61.4034 236.5,58.5C 232.639,55.8751 228.306,54.2085 223.5,53.5C 218.562,51.0534 213.228,50.0534 207.5,50.5C 206.167,49.8333 204.833,49.1667 203.5,48.5 Z"/></g>
<g><path style="opacity:1" fill="#a0a2a5" d="M 236.5,60.5 C 241.811,62.478 245.478,66.1446 247.5,71.5C 243.243,68.5156 239.576,64.8489 236.5,60.5 Z"/></g>
<g><path style="opacity:1" fill="#873d13" d="M 202.5,62.5 C 202.5,62.8333 202.5,63.1667 202.5,63.5C 199.204,68.1731 196.204,73.1731 193.5,78.5C 193.043,79.2975 192.376,79.6309 191.5,79.5C 188.475,78.9668 187.142,77.1335 187.5,74C 187.833,72.8333 188.167,71.6667 188.5,70.5C 191.757,69.2514 193.423,66.9181 193.5,63.5C 193.833,63.5 194.167,63.5 194.5,63.5C 196.064,60.2935 198.731,58.9602 202.5,59.5C 202.5,60.5 202.5,61.5 202.5,62.5 Z"/></g>
<g><path style="opacity:1" fill="#100d0b" d="M 236.5,58.5 C 243.976,61.4034 250.976,65.0701 257.5,69.5C 254.275,70.807 250.941,71.807 247.5,72.5C 247.5,72.1667 247.5,71.8333 247.5,71.5C 245.478,66.1446 241.811,62.478 236.5,60.5C 236.082,59.7784 235.416,59.2784 234.5,59C 235.094,58.5357 235.761,58.369 236.5,58.5 Z"/></g>
<g><path style="opacity:1" fill="#38342f" d="M 223.5,53.5 C 228.306,54.2085 232.639,55.8751 236.5,58.5C 235.761,58.369 235.094,58.5357 234.5,59C 235.416,59.2784 236.082,59.7784 236.5,60.5C 239.576,64.8489 243.243,68.5156 247.5,71.5C 247.5,71.8333 247.5,72.1667 247.5,72.5C 244.195,73.4543 241.029,74.7876 238,76.5C 237.127,76.2645 236.293,75.9312 235.5,75.5C 234.786,72.9728 234.12,70.4728 233.5,68C 227.26,65.305 220.927,64.9717 214.5,67C 213.497,70.5048 211.163,72.0048 207.5,71.5C 207.5,72.8333 207.5,74.1667 207.5,75.5C 206.5,75.5 205.5,75.5 204.5,75.5C 203.452,70.8285 204.118,66.3285 206.5,62C 205.135,62.1433 203.802,62.6433 202.5,63.5C 202.5,63.1667 202.5,62.8333 202.5,62.5C 204.993,60.3424 206.66,57.6757 207.5,54.5C 212.822,54.0199 218.155,53.6865 223.5,53.5 Z"/></g>
<g><path style="opacity:1" fill="#251a17" d="M 207.5,75.5 C 209.833,75.5 212.167,75.5 214.5,75.5C 214.56,76.0431 214.893,76.3764 215.5,76.5C 216.816,73.972 217.983,73.972 219,76.5C 221.915,75.6233 224.915,74.9566 228,74.5C 230.183,74.5221 231.683,75.5221 232.5,77.5C 223.558,77.7999 214.558,77.9665 205.5,78C 204.027,78.7096 203.36,79.8762 203.5,81.5C 202.844,82.2778 202.011,82.9444 201,83.5C 198.333,82.8333 195.667,82.1667 193,81.5C 191.97,81.1639 191.47,80.4972 191.5,79.5C 192.376,79.6309 193.043,79.2975 193.5,78.5C 196.204,73.1731 199.204,68.1731 202.5,63.5C 203.802,62.6433 205.135,62.1433 206.5,62C 204.118,66.3285 203.452,70.8285 204.5,75.5C 205.5,75.5 206.5,75.5 207.5,75.5 Z"/></g>
<g><path style="opacity:1" fill="#3d170b" d="M 232.5,77.5 C 231.683,75.5221 230.183,74.5221 228,74.5C 224.915,74.9566 221.915,75.6233 219,76.5C 217.983,73.972 216.816,73.972 215.5,76.5C 214.893,76.3764 214.56,76.0431 214.5,75.5C 214.24,73.0561 214.907,70.5561 216.5,68C 221.838,67.1214 227.004,67.6214 232,69.5C 232.614,71.3134 232.281,71.6467 231,70.5C 230.833,71 230.667,71.5 230.5,72C 231.703,73.3685 232.703,74.8685 233.5,76.5C 233.376,77.1067 233.043,77.44 232.5,77.5 Z"/></g>
<g><path style="opacity:1" fill="#4f514d" d="M 151.5,53.5 C 150.047,54.8249 150.381,55.6582 152.5,56C 150.744,56.2022 149.078,56.7022 147.5,57.5C 150.768,58.487 154.102,58.8204 157.5,58.5C 158.449,60.7373 159.116,63.0706 159.5,65.5C 159.497,69.7006 157.497,72.2006 153.5,73C 144.141,74.0032 134.808,75.1699 125.5,76.5C 122.937,76.263 122.937,75.763 125.5,75C 121.167,74.3333 116.833,74.3333 112.5,75C 108.159,75.8383 103.659,77.0049 99,78.5C 97.293,78.3516 95.6264,78.0182 94,77.5C 92.699,77.6387 91.8656,78.3054 91.5,79.5C 91.1667,79.5 90.8333,79.5 90.5,79.5C 89.9094,78.8485 89.2427,78.1818 88.5,77.5C 90.8432,76.7251 93.1766,76.0584 95.5,75.5C 96.4961,76.6651 97.8295,77.3318 99.5,77.5C 103.774,76.3991 107.441,74.2324 110.5,71C 122.637,66.0971 134.304,60.4304 145.5,54C 147.473,53.5045 149.473,53.3379 151.5,53.5 Z"/></g>
<g><path style="opacity:1" fill="#cfc1b3" d="M 72.5,74.5 C 76.1667,74.5 79.8333,74.5 83.5,74.5C 83.9382,74.4346 84.2716,74.6012 84.5,75C 83.0577,75.3768 82.0577,76.2101 81.5,77.5C 78.5701,76.701 75.5701,76.3677 72.5,76.5C 72.5,75.8333 72.5,75.1667 72.5,74.5 Z"/></g>
<g><path style="opacity:1" fill="#463426" d="M 247.5,72.5 C 250.941,71.807 254.275,70.807 257.5,69.5C 258.976,71.7089 258.309,73.0423 255.5,73.5C 250.471,73.9205 245.805,75.2538 241.5,77.5C 235.455,79.0813 229.455,80.4146 223.5,81.5C 216.653,82.0782 209.987,82.0782 203.5,81.5C 203.36,79.8762 204.027,78.7096 205.5,78C 214.558,77.9665 223.558,77.7999 232.5,77.5C 233.043,77.44 233.376,77.1067 233.5,76.5C 232.703,74.8685 231.703,73.3685 230.5,72C 230.667,71.5 230.833,71 231,70.5C 232.281,71.6467 232.614,71.3134 232,69.5C 227.004,67.6214 221.838,67.1214 216.5,68C 214.907,70.5561 214.24,73.0561 214.5,75.5C 212.167,75.5 209.833,75.5 207.5,75.5C 207.5,74.1667 207.5,72.8333 207.5,71.5C 211.163,72.0048 213.497,70.5048 214.5,67C 220.927,64.9717 227.26,65.305 233.5,68C 234.12,70.4728 234.786,72.9728 235.5,75.5C 236.293,75.9312 237.127,76.2645 238,76.5C 241.029,74.7876 244.195,73.4543 247.5,72.5 Z"/></g>
<g><path style="opacity:1" fill="#a88e78" d="M 255.5,73.5 C 255.5,74.8333 256.167,75.5 257.5,75.5C 252.304,75.4065 246.971,76.0731 241.5,77.5C 245.805,75.2538 250.471,73.9205 255.5,73.5 Z"/></g>
<g><path style="opacity:1" fill="#9f785f" d="M 72.5,74.5 C 72.5,75.1667 72.5,75.8333 72.5,76.5C 66.0847,75.8567 60.0847,76.8567 54.5,79.5C 50.7653,80.3012 47.0986,81.3012 43.5,82.5C 52.3419,77.2038 62.0086,74.5372 72.5,74.5 Z"/></g>
<g><path style="opacity:1" fill="#3e3c39" d="M 312.5,64.5 C 312.5,83.5 312.5,102.5 312.5,121.5C 308.833,121.5 305.167,121.5 301.5,121.5C 301.5,116.833 301.5,112.167 301.5,107.5C 302.314,109.631 302.814,111.964 303,114.5C 303.657,106.477 303.49,98.4772 302.5,90.5C 302.167,89.8333 301.833,89.1667 301.5,88.5C 301.937,83.6512 300.271,79.3179 296.5,75.5C 286.888,72.1021 277.055,71.1021 267,72.5C 260.024,68.6006 253.19,64.6006 246.5,60.5C 244.916,58.5778 243.082,56.9111 241,55.5C 240.667,55.8333 240.333,56.1667 240,56.5C 238.559,54.6951 238.392,52.6951 239.5,50.5C 248.457,50.7312 257.457,50.8979 266.5,51C 271.051,52.2148 275.718,52.8814 280.5,53C 287.583,57.3065 295.249,60.1399 303.5,61.5C 303.5,62.5 303.5,63.5 303.5,64.5C 306.5,64.5 309.5,64.5 312.5,64.5 Z"/></g>
<g><path style="opacity:1" fill="#161712" d="M 103.5,79.5 C 117.5,78.1667 131.5,78.1667 145.5,79.5C 143.883,80.038 142.216,80.3713 140.5,80.5C 128.153,80.5507 115.82,80.2174 103.5,79.5 Z"/></g>
<g><path style="opacity:1" fill="#5c2a12" d="M 193.5,63.5 C 193.423,66.9181 191.757,69.2514 188.5,70.5C 188.167,71.6667 187.833,72.8333 187.5,74C 187.142,77.1335 188.475,78.9668 191.5,79.5C 191.47,80.4972 191.97,81.1639 193,81.5C 195.667,82.1667 198.333,82.8333 201,83.5C 202.011,82.9444 202.844,82.2778 203.5,81.5C 209.987,82.0782 216.653,82.0782 223.5,81.5C 228.306,82.9804 232.973,82.3138 237.5,79.5C 240.711,80.6532 244.044,81.3198 247.5,81.5C 252.574,81.0743 257.574,80.241 262.5,79C 263.376,77.4152 264.709,76.4152 266.5,76C 271.351,75.8255 276.018,75.3255 280.5,74.5C 287.833,72.7224 293.167,75.0557 296.5,81.5C 294.833,81.5 293.167,81.5 291.5,81.5C 291.853,79.3652 291.02,78.0319 289,77.5C 285.702,79.0667 282.202,79.9 278.5,80C 279.056,80.3826 279.389,80.8826 279.5,81.5C 277.576,81.7107 277.243,82.3774 278.5,83.5C 278.88,85.698 278.213,87.3646 276.5,88.5C 276.756,86.2075 276.423,84.0408 275.5,82C 272.2,82.0455 268.866,82.2122 265.5,82.5C 265.399,89.9105 264.565,97.2438 263,104.5C 262.617,105.056 262.117,105.389 261.5,105.5C 261.995,103.548 262.328,101.548 262.5,99.5C 262.415,97.6672 261.748,96.3339 260.5,95.5C 260.927,92.6239 261.594,89.7906 262.5,87C 262.275,85.3791 261.442,84.2125 260,83.5C 256.863,84.3606 253.697,85.0272 250.5,85.5C 251.627,87.9977 252.294,90.6644 252.5,93.5C 252.489,95.0451 252.156,96.3784 251.5,97.5C 252.01,94.6122 251.344,92.2789 249.5,90.5C 241.442,89.651 233.442,89.651 225.5,90.5C 230.883,89.655 236.216,88.4883 241.5,87C 235.45,86.7294 229.45,87.2294 223.5,88.5C 223.5,87.5 223.5,86.5 223.5,85.5C 221.833,85.5 220.167,85.5 218.5,85.5C 204.308,85.7729 189.974,85.1062 175.5,83.5C 177.156,81.9397 179.156,80.9397 181.5,80.5C 184.797,80.6713 185.131,80.0046 182.5,78.5C 184.019,73.6631 186.686,69.6631 190.5,66.5C 191.1,65.0998 192.1,64.0998 193.5,63.5 Z"/></g>
<g><path style="opacity:1" fill="#5e3d23" d="M 280.5,74.5 C 276.018,75.3255 271.351,75.8255 266.5,76C 264.709,76.4152 263.376,77.4152 262.5,79C 257.574,80.241 252.574,81.0743 247.5,81.5C 244.044,81.3198 240.711,80.6532 237.5,79.5C 232.973,82.3138 228.306,82.9804 223.5,81.5C 229.455,80.4146 235.455,79.0813 241.5,77.5C 246.971,76.0731 252.304,75.4065 257.5,75.5C 265.132,74.6423 272.799,74.3089 280.5,74.5 Z"/></g>
<g><path style="opacity:1" fill="#7e3f16" d="M 72.5,76.5 C 75.5701,76.3677 78.5701,76.701 81.5,77.5C 81.5,78.1667 81.5,78.8333 81.5,79.5C 77.8449,78.9673 74.1783,79.4673 70.5,81C 71.8333,81.6667 71.8333,82.3333 70.5,83C 67.2823,83.9003 64.2823,85.067 61.5,86.5C 59.1944,86.9926 56.861,87.3259 54.5,87.5C 57.4083,86.1878 60.4083,84.8545 63.5,83.5C 60.3349,83.4487 57.0016,83.282 53.5,83C 54.7588,82.0766 56.0921,81.2432 57.5,80.5C 56.675,79.6143 55.675,79.281 54.5,79.5C 60.0847,76.8567 66.0847,75.8567 72.5,76.5 Z"/></g>
<g><path style="opacity:1" fill="#eaddd0" d="M 81.5,79.5 C 84.5,79.5 87.5,79.5 90.5,79.5C 90.8333,79.5 91.1667,79.5 91.5,79.5C 95.5,79.5 99.5,79.5 103.5,79.5C 115.82,80.2174 128.153,80.5507 140.5,80.5C 139.07,81.5375 137.403,82.2041 135.5,82.5C 122.909,81.3542 110.242,81.1876 97.5,82C 96.5842,82.2784 95.9175,82.7784 95.5,83.5C 89.916,83.2549 84.5826,83.9216 79.5,85.5C 78.8333,85.5 78.1667,85.5 77.5,85.5C 72.868,86.3764 68.2014,87.0431 63.5,87.5C 63.1583,86.6618 62.4916,86.3284 61.5,86.5C 64.2823,85.067 67.2823,83.9003 70.5,83C 71.8333,82.3333 71.8333,81.6667 70.5,81C 74.1783,79.4673 77.8449,78.9673 81.5,79.5 Z"/></g>
<g><path style="opacity:1" fill="#4c311a" d="M 190.5,66.5 C 186.686,69.6631 184.019,73.6631 182.5,78.5C 185.131,80.0046 184.797,80.6713 181.5,80.5C 173.345,78.4988 165.512,79.1655 158,82.5C 156.128,81.9318 154.295,81.2651 152.5,80.5C 151.281,81.6461 149.948,82.6461 148.5,83.5C 149.853,84.5237 150.52,85.857 150.5,87.5C 148.284,88.044 146.284,89.044 144.5,90.5C 144.672,89.5084 144.338,88.8417 143.5,88.5C 139.03,87.5139 134.363,87.1805 129.5,87.5C 128.127,87.6567 126.793,87.49 125.5,87C 129.061,85.7679 132.394,84.2679 135.5,82.5C 137.403,82.2041 139.07,81.5375 140.5,80.5C 142.216,80.3713 143.883,80.038 145.5,79.5C 149.373,78.0751 153.373,77.0751 157.5,76.5C 164.726,77.2159 172.06,78.2159 179.5,79.5C 180.167,79.3333 180.833,79.1667 181.5,79C 179.389,78.1553 177.389,77.322 175.5,76.5C 175.422,73.5133 176.589,72.8466 179,74.5C 182.763,73.0714 185.596,70.5714 187.5,67C 188.448,66.5172 189.448,66.3505 190.5,66.5 Z"/></g>
<g><path style="opacity:1" fill="#d1c0a9" d="M 157.5,76.5 C 163.5,76.5 169.5,76.5 175.5,76.5C 177.389,77.322 179.389,78.1553 181.5,79C 180.833,79.1667 180.167,79.3333 179.5,79.5C 172.06,78.2159 164.726,77.2159 157.5,76.5 Z"/></g>
<g><path style="opacity:1" fill="#edb890" d="M 279.5,81.5 C 283.734,82.8027 288.067,83.9694 292.5,85C 291.737,85.9435 290.737,86.4435 289.5,86.5C 285.707,85.6371 282.041,84.6371 278.5,83.5C 277.243,82.3774 277.576,81.7107 279.5,81.5 Z"/></g>
<g><path style="opacity:1" fill="#a88866" d="M 95.5,83.5 C 90.3673,84.6649 85.034,85.3315 79.5,85.5C 84.5826,83.9216 89.916,83.2549 95.5,83.5 Z"/></g>
<g><path style="opacity:1" fill="#7b3c17" d="M 296.5,81.5 C 297.779,84.1117 299.445,86.4451 301.5,88.5C 301.833,89.1667 302.167,89.8333 302.5,90.5C 300.021,89.0256 297.354,88.0256 294.5,87.5C 292.938,87.7329 291.605,88.3995 290.5,89.5C 285.894,85.244 281.561,85.5774 277.5,90.5C 277.167,90.5 276.833,90.5 276.5,90.5C 276.5,89.8333 276.5,89.1667 276.5,88.5C 278.213,87.3646 278.88,85.698 278.5,83.5C 282.041,84.6371 285.707,85.6371 289.5,86.5C 290.737,86.4435 291.737,85.9435 292.5,85C 288.067,83.9694 283.734,82.8027 279.5,81.5C 279.389,80.8826 279.056,80.3826 278.5,80C 282.202,79.9 285.702,79.0667 289,77.5C 291.02,78.0319 291.853,79.3652 291.5,81.5C 293.167,81.5 294.833,81.5 296.5,81.5 Z"/></g>
<g><path style="opacity:1" fill="#f2d89f" d="M 61.5,86.5 C 62.4916,86.3284 63.1583,86.6618 63.5,87.5C 60.5085,88.3711 57.5085,89.3711 54.5,90.5C 52.139,90.6741 49.8056,91.0074 47.5,91.5C 47.5,91.1667 47.5,90.8333 47.5,90.5C 49.9872,89.6772 52.3206,88.6772 54.5,87.5C 56.861,87.3259 59.1944,86.9926 61.5,86.5 Z"/></g>
<g><path style="opacity:1" fill="#c2ac98" d="M 135.5,82.5 C 132.394,84.2679 129.061,85.7679 125.5,87C 126.793,87.49 128.127,87.6567 129.5,87.5C 123.545,88.4139 117.878,90.4139 112.5,93.5C 111.914,93.2907 111.414,92.9574 111,92.5C 108.337,94.2489 105.503,95.5822 102.5,96.5C 100.857,96.3505 99.19,96.0171 97.5,95.5C 108.541,90.6518 119.874,86.4852 131.5,83C 119.516,83.2056 107.516,83.3723 95.5,83.5C 95.9175,82.7784 96.5842,82.2784 97.5,82C 110.242,81.1876 122.909,81.3542 135.5,82.5 Z"/></g>
<g><path style="opacity:1" fill="#733615" d="M 218.5,85.5 C 220.167,85.5 221.833,85.5 223.5,85.5C 223.5,86.5 223.5,87.5 223.5,88.5C 216.708,90.0765 209.708,91.2432 202.5,92C 201.531,93.7583 200.364,94.2583 199,93.5C 198.536,94.0944 198.369,94.7611 198.5,95.5C 194.532,92.4873 190.198,90.4873 185.5,89.5C 181.976,89.4007 178.643,90.0673 175.5,91.5C 175.5,90.5 175.5,89.5 175.5,88.5C 182.942,84.4802 190.108,85.1469 197,90.5C 197.903,89.2986 199.069,88.4652 200.5,88C 206.353,86.2473 212.353,85.414 218.5,85.5 Z"/></g>
<g><path style="opacity:1" fill="#612104" d="M 175.5,83.5 C 189.974,85.1062 204.308,85.7729 218.5,85.5C 212.353,85.414 206.353,86.2473 200.5,88C 199.069,88.4652 197.903,89.2986 197,90.5C 190.108,85.1469 182.942,84.4802 175.5,88.5C 166.348,91.707 157.015,94.0404 147.5,95.5C 148.234,94.2921 148.567,92.9587 148.5,91.5C 153.501,91.4631 158.001,90.1298 162,87.5C 164.453,88.4929 166.953,88.6595 169.5,88C 171.575,86.4316 173.575,84.9316 175.5,83.5 Z"/></g>
<g><path style="opacity:1" fill="#3a0f0d" d="M 294.5,87.5 C 293.4,88.6049 292.733,89.9382 292.5,91.5C 290.821,92.9163 289.154,94.2497 287.5,95.5C 287.5,94.8333 287.5,94.1667 287.5,93.5C 287.5,93.1667 287.5,92.8333 287.5,92.5C 289.144,92.1898 290.144,91.1898 290.5,89.5C 291.605,88.3995 292.938,87.7329 294.5,87.5 Z"/></g>
<g><path style="opacity:1" fill="#c5b0aa" d="M 43.5,82.5 C 41.0578,84.2258 38.3911,85.7258 35.5,87C 33.9593,90.3394 31.9593,93.1727 29.5,95.5C 28.8333,95.5 28.1667,95.5 27.5,95.5C 28.9599,93.5372 30.6266,91.7038 32.5,90C 31.4293,89.1482 30.4293,88.3149 29.5,87.5C 33.8475,85.0898 38.5142,83.4231 43.5,82.5 Z"/></g>
<g><path style="opacity:1" fill="#100403" d="M 260.5,95.5 C 260.5,95.8333 260.5,96.1667 260.5,96.5C 258.369,101.542 256.036,106.542 253.5,111.5C 251.937,112.945 250.604,114.611 249.5,116.5C 248.518,117.141 247.518,117.807 246.5,118.5C 246.167,118.167 245.833,117.833 245.5,117.5C 248.747,111.172 250.747,104.506 251.5,97.5C 252.156,96.3784 252.489,95.0451 252.5,93.5C 252.294,90.6644 251.627,87.9977 250.5,85.5C 253.697,85.0272 256.863,84.3606 260,83.5C 261.442,84.2125 262.275,85.3791 262.5,87C 261.594,89.7906 260.927,92.6239 260.5,95.5 Z"/></g>
<g><path style="opacity:1" fill="#663614" d="M 97.5,95.5 C 97.1667,95.5 96.8333,95.5 96.5,95.5C 96.8039,94.8501 97.1373,94.1835 97.5,93.5C 95.8955,91.8211 95.2289,89.8211 95.5,87.5C 89.3397,87.0179 83.3397,86.3512 77.5,85.5C 78.1667,85.5 78.8333,85.5 79.5,85.5C 85.034,85.3315 90.3673,84.6649 95.5,83.5C 107.516,83.3723 119.516,83.2056 131.5,83C 119.874,86.4852 108.541,90.6518 97.5,95.5 Z"/></g>
<g><path style="opacity:1" fill="#383737" d="M 129.5,87.5 C 134.363,87.1805 139.03,87.5139 143.5,88.5C 138.953,92.1302 133.953,93.9635 128.5,94C 125.302,94.8485 122.469,96.3485 120,98.5C 118.608,96.1582 117.775,96.1582 117.5,98.5C 113.753,98.3924 110.086,98.8924 106.5,100C 105.304,100.654 105.304,101.154 106.5,101.5C 108.071,100.691 109.738,100.357 111.5,100.5C 112.602,102.092 111.935,102.925 109.5,103C 103.238,104.269 97.2377,104.436 91.5,103.5C 95.7303,101.894 99.397,99.5611 102.5,96.5C 105.503,95.5822 108.337,94.2489 111,92.5C 111.414,92.9574 111.914,93.2907 112.5,93.5C 117.878,90.4139 123.545,88.4139 129.5,87.5 Z"/></g>
<g><path style="opacity:1" fill="#dcb48c" d="M 225.5,90.5 C 220.112,91.3465 214.779,92.5132 209.5,94C 206.975,94.4238 204.975,95.5905 203.5,97.5C 202.041,97.5674 200.708,97.2341 199.5,96.5C 199.5,95.8333 199.167,95.5 198.5,95.5C 198.369,94.7611 198.536,94.0944 199,93.5C 200.364,94.2583 201.531,93.7583 202.5,92C 209.708,91.2432 216.708,90.0765 223.5,88.5C 229.45,87.2294 235.45,86.7294 241.5,87C 236.216,88.4883 230.883,89.655 225.5,90.5 Z"/></g>
<g><path style="opacity:1" fill="#d15a04" d="M 287.5,92.5 C 287.5,92.8333 287.5,93.1667 287.5,93.5C 282.219,92.6069 278.886,94.7736 277.5,100C 278.648,102.638 280.315,104.804 282.5,106.5C 279.507,108.051 276.507,109.718 273.5,111.5C 275.258,104.909 277.092,98.2427 279,91.5C 282.253,88.8605 285.086,89.1938 287.5,92.5 Z"/></g>
<g><path style="opacity:1" fill="#595d66" d="M 29.5,87.5 C 30.4293,88.3149 31.4293,89.1482 32.5,90C 30.6266,91.7038 28.9599,93.5372 27.5,95.5C 25.4456,96.6086 23.2789,97.6086 21,98.5C 20.2352,98.4301 19.7352,98.0967 19.5,97.5C 22.4729,93.8604 25.8062,90.5271 29.5,87.5 Z"/></g>
<g><path style="opacity:1" fill="#b55214" d="M 54.5,79.5 C 55.675,79.281 56.675,79.6143 57.5,80.5C 56.0921,81.2432 54.7588,82.0766 53.5,83C 57.0016,83.282 60.3349,83.4487 63.5,83.5C 60.4083,84.8545 57.4083,86.1878 54.5,87.5C 52.3206,88.6772 49.9872,89.6772 47.5,90.5C 43.0863,91.5384 38.7529,92.8717 34.5,94.5C 35.1667,94.8333 35.8333,95.1667 36.5,95.5C 40.3678,94.3849 44.0345,93.0515 47.5,91.5C 49.8056,91.0074 52.139,90.6741 54.5,90.5C 57.4915,91.3711 60.4915,92.3711 63.5,93.5C 61.0832,95.2374 58.7499,97.2374 56.5,99.5C 52.5234,100.977 48.5234,101.31 44.5,100.5C 41.288,101.356 38.1213,102.356 35,103.5C 32.1041,102.795 29.2708,101.795 26.5,100.5C 27.2599,98.6396 28.2599,96.973 29.5,95.5C 31.9593,93.1727 33.9593,90.3394 35.5,87C 38.3911,85.7258 41.0578,84.2258 43.5,82.5C 47.0986,81.3012 50.7653,80.3012 54.5,79.5 Z"/></g>
<g><path style="opacity:1" fill="#eaa265" d="M 47.5,90.5 C 47.5,90.8333 47.5,91.1667 47.5,91.5C 44.0345,93.0515 40.3678,94.3849 36.5,95.5C 35.8333,95.1667 35.1667,94.8333 34.5,94.5C 38.7529,92.8717 43.0863,91.5384 47.5,90.5 Z"/></g>
<g><path style="opacity:1" fill="#461a06" d="M 181.5,80.5 C 179.156,80.9397 177.156,81.9397 175.5,83.5C 173.575,84.9316 171.575,86.4316 169.5,88C 166.953,88.6595 164.453,88.4929 162,87.5C 158.001,90.1298 153.501,91.4631 148.5,91.5C 148.567,92.9587 148.234,94.2921 147.5,95.5C 141.537,95.8145 136.204,97.8145 131.5,101.5C 128.415,102.921 125.248,104.254 122,105.5C 120.302,108.396 120.136,111.396 121.5,114.5C 118.331,115.002 115.998,116.669 114.5,119.5C 114.261,117.533 114.594,115.699 115.5,114C 114.646,112.978 113.646,112.145 112.5,111.5C 105.237,113.492 97.9039,113.825 90.5,112.5C 96.8459,111.884 103.179,110.551 109.5,108.5C 108.754,107.264 108.421,105.93 108.5,104.5C 114.932,104.134 121.265,103.134 127.5,101.5C 127.5,100.5 127.5,99.5 127.5,98.5C 132.977,95.5968 138.643,92.9302 144.5,90.5C 146.284,89.044 148.284,88.044 150.5,87.5C 150.52,85.857 149.853,84.5237 148.5,83.5C 149.948,82.6461 151.281,81.6461 152.5,80.5C 154.295,81.2651 156.128,81.9318 158,82.5C 165.512,79.1655 173.345,78.4988 181.5,80.5 Z"/></g>
<g><path style="opacity:1" fill="#160f0d" d="M 198.5,95.5 C 199.167,95.5 199.5,95.8333 199.5,96.5C 201.884,101.159 203.384,106.159 204,111.5C 204.499,116.823 204.666,122.156 204.5,127.5C 202.693,132.368 201.027,137.368 199.5,142.5C 196.841,147.8 192.841,151.8 187.5,154.5C 186.818,153.757 186.151,153.091 185.5,152.5C 189.205,149.795 192.205,146.462 194.5,142.5C 198.347,137.802 200.347,132.302 200.5,126C 199.969,121.012 198.802,116.178 197,111.5C 196.623,110.058 195.79,109.058 194.5,108.5C 193.5,105.5 191.5,103.5 188.5,102.5C 183.805,98.3752 178.471,97.5419 172.5,100C 170.416,100.697 168.749,101.864 167.5,103.5C 166.833,103.5 166.167,103.5 165.5,103.5C 168.359,99.1216 171.692,95.1216 175.5,91.5C 178.643,90.0673 181.976,89.4007 185.5,89.5C 190.198,90.4873 194.532,92.4873 198.5,95.5 Z"/></g>
<g><path style="opacity:1" fill="#140504" d="M 276.5,88.5 C 276.5,89.1667 276.5,89.8333 276.5,90.5C 275.111,94.9442 273.444,99.2775 271.5,103.5C 268.399,106.835 265.399,110.335 262.5,114C 260.273,114.941 258.273,116.108 256.5,117.5C 255.5,117.5 254.5,117.5 253.5,117.5C 257.302,114.345 259.969,110.345 261.5,105.5C 262.117,105.389 262.617,105.056 263,104.5C 264.565,97.2438 265.399,89.9105 265.5,82.5C 268.866,82.2122 272.2,82.0455 275.5,82C 276.423,84.0408 276.756,86.2075 276.5,88.5 Z"/></g>
<g><path style="opacity:1" fill="#923c0e" d="M 15.5,108.5 C 15.5,106.167 15.5,103.833 15.5,101.5C 16.5,99.8333 17.8333,98.5 19.5,97.5C 19.7352,98.0967 20.2352,98.4301 21,98.5C 23.2789,97.6086 25.4456,96.6086 27.5,95.5C 28.1667,95.5 28.8333,95.5 29.5,95.5C 28.2599,96.973 27.2599,98.6396 26.5,100.5C 29.2708,101.795 32.1041,102.795 35,103.5C 38.1213,102.356 41.288,101.356 44.5,100.5C 48.5234,101.31 52.5234,100.977 56.5,99.5C 58.7499,97.2374 61.0832,95.2374 63.5,93.5C 63.5,92.1667 63.5,90.8333 63.5,89.5C 68.9703,89.7535 74.3036,89.0868 79.5,87.5C 79.5,88.5 79.5,89.5 79.5,90.5C 77.8967,90.3118 76.5634,90.8118 75.5,92C 77.2852,93.1628 79.2852,93.8295 81.5,94C 75.7852,97.0272 69.7852,99.1939 63.5,100.5C 63.5,101.5 63.5,102.5 63.5,103.5C 58.082,105.554 52.582,105.887 47,104.5C 46.8333,104.833 46.6667,105.167 46.5,105.5C 47.7287,106.281 49.062,106.781 50.5,107C 48.1093,107.287 45.7759,107.787 43.5,108.5C 34.2185,107.994 24.8851,107.994 15.5,108.5 Z"/></g>
<g><path style="opacity:1" fill="#877f7e" d="M 143.5,88.5 C 144.338,88.8417 144.672,89.5084 144.5,90.5C 138.643,92.9302 132.977,95.5968 127.5,98.5C 125.393,99.3004 123.226,99.9671 121,100.5C 119.566,100.138 118.399,99.4715 117.5,98.5C 117.775,96.1582 118.608,96.1582 120,98.5C 122.469,96.3485 125.302,94.8485 128.5,94C 133.953,93.9635 138.953,92.1302 143.5,88.5 Z"/></g>
<g><path style="opacity:1" fill="#672c05" d="M 287.5,95.5 C 285.699,100.604 284.699,105.937 284.5,111.5C 283.833,111.5 283.167,111.5 282.5,111.5C 283.038,109.883 283.371,108.216 283.5,106.5C 283.777,102.356 285.11,98.6892 287.5,95.5 Z"/></g>
<g><path style="opacity:1" fill="#0d0809" d="M 294.5,87.5 C 297.354,88.0256 300.021,89.0256 302.5,90.5C 303.49,98.4772 303.657,106.477 303,114.5C 302.814,111.964 302.314,109.631 301.5,107.5C 301.88,103.429 300.88,99.7624 298.5,96.5C 298.131,92.4378 296.131,90.7712 292.5,91.5C 292.733,89.9382 293.4,88.6049 294.5,87.5 Z"/></g>
<g><path style="opacity:1" fill="#d9d9d7" d="M 188.5,102.5 C 186.565,101.85 184.565,101.517 182.5,101.5C 181.793,104.786 181.46,108.119 181.5,111.5C 181.068,112.71 180.401,113.71 179.5,114.5C 179.666,110.154 179.499,105.821 179,101.5C 178.501,105.152 178.335,108.818 178.5,112.5C 177.833,111.833 177.167,111.167 176.5,110.5C 176.475,107.04 175.808,103.706 174.5,100.5C 172.261,101.788 169.928,102.788 167.5,103.5C 168.749,101.864 170.416,100.697 172.5,100C 178.471,97.5419 183.805,98.3752 188.5,102.5 Z"/></g>
<g><path style="opacity:1" fill="#ed7f0f" d="M 287.5,93.5 C 287.5,94.1667 287.5,94.8333 287.5,95.5C 285.11,98.6892 283.777,102.356 283.5,106.5C 283.167,106.5 282.833,106.5 282.5,106.5C 280.315,104.804 278.648,102.638 277.5,100C 278.886,94.7736 282.219,92.6069 287.5,93.5 Z"/></g>
<g><path style="opacity:1" fill="#372117" d="M 96.5,95.5 C 96.8333,95.5 97.1667,95.5 97.5,95.5C 99.19,96.0171 100.857,96.3505 102.5,96.5C 99.397,99.5611 95.7303,101.894 91.5,103.5C 97.2377,104.436 103.238,104.269 109.5,103C 111.935,102.925 112.602,102.092 111.5,100.5C 113.786,100.405 115.786,99.7384 117.5,98.5C 118.399,99.4715 119.566,100.138 121,100.5C 123.226,99.9671 125.393,99.3004 127.5,98.5C 127.5,99.5 127.5,100.5 127.5,101.5C 121.265,103.134 114.932,104.134 108.5,104.5C 104.518,105.492 100.518,106.492 96.5,107.5C 93.4262,106.698 90.4262,105.698 87.5,104.5C 88.1925,103.482 88.8592,102.482 89.5,101.5C 91.5,101.167 93.5,100.833 95.5,100.5C 95.366,98.7085 95.6993,97.0418 96.5,95.5 Z"/></g>
<g><path style="opacity:1" fill="#ada8a8" d="M 117.5,98.5 C 115.786,99.7384 113.786,100.405 111.5,100.5C 109.738,100.357 108.071,100.691 106.5,101.5C 105.304,101.154 105.304,100.654 106.5,100C 110.086,98.8924 113.753,98.3924 117.5,98.5 Z"/></g>
<g><path style="opacity:1" fill="#494849" d="M 298.5,96.5 C 298.167,96.5 297.833,96.5 297.5,96.5C 299.258,99.9767 299.758,103.643 299,107.5C 297.352,108.717 295.519,109.55 293.5,110C 294.833,110.333 296.167,110.667 297.5,111C 296.304,111.654 296.304,112.154 297.5,112.5C 299.167,110.833 300.167,111.167 300.5,113.5C 299.315,115.87 298.149,118.203 297,120.5C 294.654,118.294 294.154,115.794 295.5,113C 294.451,112.508 293.451,112.674 292.5,113.5C 291.752,109.512 290.085,106.179 287.5,103.5C 286.071,105.438 285.071,108.105 284.5,111.5C 284.699,105.937 285.699,100.604 287.5,95.5C 289.154,94.2497 290.821,92.9163 292.5,91.5C 296.131,90.7712 298.131,92.4378 298.5,96.5 Z"/></g>
<g><path style="opacity:1" fill="#c7c6c6" d="M 297.5,96.5 C 296.641,99.2116 295.475,101.878 294,104.5C 293.782,101.574 293.282,98.7405 292.5,96C 294.451,93.9353 296.118,94.102 297.5,96.5 Z"/></g>
<g><path style="opacity:1" fill="#8a440c" d="M 175.5,91.5 C 171.692,95.1216 168.359,99.1216 165.5,103.5C 163.789,106.522 161.789,109.189 159.5,111.5C 159.414,110.504 159.748,109.671 160.5,109C 157.482,109.499 154.482,109.332 151.5,108.5C 154.888,106.139 158.554,104.306 162.5,103C 163.823,102.184 164.489,101.017 164.5,99.5C 166.532,98.9522 167.532,97.6188 167.5,95.5C 169.482,92.8633 172.148,91.53 175.5,91.5 Z"/></g>
<g><path style="opacity:1" fill="#989697" d="M 188.5,102.5 C 191.5,103.5 193.5,105.5 194.5,108.5C 192.167,106.833 190.167,104.833 188.5,102.5 Z"/></g>
<g><path style="opacity:1" fill="#77310d" d="M 77.5,85.5 C 83.3397,86.3512 89.3397,87.0179 95.5,87.5C 95.2289,89.8211 95.8955,91.8211 97.5,93.5C 97.1373,94.1835 96.8039,94.8501 96.5,95.5C 95.6993,97.0418 95.366,98.7085 95.5,100.5C 93.5,100.833 91.5,101.167 89.5,101.5C 87.7446,102.072 86.0779,102.906 84.5,104C 85.056,104.383 85.3893,104.883 85.5,105.5C 77.1019,107.672 68.4352,109.005 59.5,109.5C 59.2907,110.086 58.9574,110.586 58.5,111C 48.172,111.5 37.8387,111.666 27.5,111.5C 23.1997,111.245 19.1997,110.245 15.5,108.5C 24.8851,107.994 34.2185,107.994 43.5,108.5C 45.7759,107.787 48.1093,107.287 50.5,107C 49.062,106.781 47.7287,106.281 46.5,105.5C 46.6667,105.167 46.8333,104.833 47,104.5C 52.582,105.887 58.082,105.554 63.5,103.5C 63.5,102.5 63.5,101.5 63.5,100.5C 69.7852,99.1939 75.7852,97.0272 81.5,94C 79.2852,93.8295 77.2852,93.1628 75.5,92C 76.5634,90.8118 77.8967,90.3118 79.5,90.5C 79.5,89.5 79.5,88.5 79.5,87.5C 74.3036,89.0868 68.9703,89.7535 63.5,89.5C 63.5,90.8333 63.5,92.1667 63.5,93.5C 60.4915,92.3711 57.4915,91.3711 54.5,90.5C 57.5085,89.3711 60.5085,88.3711 63.5,87.5C 68.2014,87.0431 72.868,86.3764 77.5,85.5 Z"/></g>
<g><path style="opacity:1" fill="#b18a6e" d="M 165.5,103.5 C 166.167,103.5 166.833,103.5 167.5,103.5C 165.721,105.546 164.054,107.713 162.5,110C 162.728,110.399 163.062,110.565 163.5,110.5C 163.047,111.458 162.381,112.292 161.5,113C 162.833,114.84 162.666,115.34 161,114.5C 160.722,115.416 160.222,116.082 159.5,116.5C 159.5,115.5 159.5,114.5 159.5,113.5C 159.5,112.833 159.5,112.167 159.5,111.5C 161.789,109.189 163.789,106.522 165.5,103.5 Z"/></g>
<g><path style="opacity:1" fill="#571e06" d="M 85.5,105.5 C 86.2891,105.783 86.9558,106.283 87.5,107C 81.8808,107.762 76.5475,109.262 71.5,111.5C 60.9065,113.049 50.2398,113.716 39.5,113.5C 35.5,112.833 31.5,112.167 27.5,111.5C 37.8387,111.666 48.172,111.5 58.5,111C 58.9574,110.586 59.2907,110.086 59.5,109.5C 68.4352,109.005 77.1019,107.672 85.5,105.5 Z"/></g>
<g><path style="opacity:1" fill="#2d0e03" d="M 89.5,101.5 C 88.8592,102.482 88.1925,103.482 87.5,104.5C 90.4262,105.698 93.4262,106.698 96.5,107.5C 100.518,106.492 104.518,105.492 108.5,104.5C 108.421,105.93 108.754,107.264 109.5,108.5C 103.179,110.551 96.8459,111.884 90.5,112.5C 86.7999,112.921 83.1333,113.588 79.5,114.5C 90.4985,114.794 101.498,115.128 112.5,115.5C 113.246,116.736 113.579,118.07 113.5,119.5C 99.496,119.667 85.496,119.5 71.5,119C 70.1667,118.333 70.1667,117.667 71.5,117C 73.5767,116.808 75.5767,116.308 77.5,115.5C 74.5535,114.679 71.5535,114.179 68.5,114C 70.1193,113.764 71.1193,112.931 71.5,111.5C 76.5475,109.262 81.8808,107.762 87.5,107C 86.9558,106.283 86.2891,105.783 85.5,105.5C 85.3893,104.883 85.056,104.383 84.5,104C 86.0779,102.906 87.7446,102.072 89.5,101.5 Z"/></g>
<g><path style="opacity:1" fill="#ca5d04" d="M 166.5,95.5 C 166.833,95.5 167.167,95.5 167.5,95.5C 167.532,97.6188 166.532,98.9522 164.5,99.5C 161.137,102.572 157.137,104.406 152.5,105C 150.127,106.98 147.961,109.147 146,111.5C 145.333,113.833 145.333,116.167 146,118.5C 148.667,119.167 151.333,119.833 154,120.5C 156.266,117.687 158.1,114.687 159.5,111.5C 159.5,112.167 159.5,112.833 159.5,113.5C 158.632,116.449 157.632,119.449 156.5,122.5C 155.094,122.973 154.427,123.973 154.5,125.5C 153.768,124.192 152.934,122.858 152,121.5C 151.326,122.578 150.326,123.245 149,123.5C 145.717,121.711 142.217,120.711 138.5,120.5C 138.335,117.482 138.502,114.482 139,111.5C 140.996,109.095 142.83,106.595 144.5,104C 150.391,101.974 156.391,100.141 162.5,98.5C 164.16,97.8284 165.493,96.8284 166.5,95.5 Z"/></g>
<g><path style="opacity:1" fill="#1a1516" d="M 176.5,110.5 C 177.814,117.175 175.147,120.509 168.5,120.5C 168.167,119.5 167.5,118.833 166.5,118.5C 168.987,115.308 168.987,111.975 166.5,108.5C 165.478,108.855 164.811,109.522 164.5,110.5C 164.167,110.5 163.833,110.5 163.5,110.5C 163.062,110.565 162.728,110.399 162.5,110C 164.054,107.713 165.721,105.546 167.5,103.5C 169.928,102.788 172.261,101.788 174.5,100.5C 175.808,103.706 176.475,107.04 176.5,110.5 Z"/></g>
<g><path style="opacity:1" fill="#b0460a" d="M 290.5,89.5 C 290.144,91.1898 289.144,92.1898 287.5,92.5C 285.086,89.1938 282.253,88.8605 279,91.5C 277.092,98.2427 275.258,104.909 273.5,111.5C 276.507,109.718 279.507,108.051 282.5,106.5C 282.833,106.5 283.167,106.5 283.5,106.5C 283.371,108.216 283.038,109.883 282.5,111.5C 282.167,111.5 281.833,111.5 281.5,111.5C 280.057,112.335 279.057,113.668 278.5,115.5C 274.133,117.89 269.799,120.224 265.5,122.5C 265.611,121.883 265.944,121.383 266.5,121C 264.101,120.289 261.768,120.456 259.5,121.5C 254.673,119.091 250.006,119.091 245.5,121.5C 237.235,123.646 229.235,126.313 221.5,129.5C 218.598,130.578 215.598,131.244 212.5,131.5C 214.833,130.167 217.167,128.833 219.5,127.5C 224.211,126.541 228.544,124.708 232.5,122C 232,121.5 231.5,121 231,120.5C 223.496,121.401 215.662,121.401 207.5,120.5C 206.47,114.537 206.303,108.537 207,102.5C 209.428,101.014 211.594,99.181 213.5,97C 225.237,93.4918 237.237,91.3251 249.5,90.5C 251.344,92.2789 252.01,94.6122 251.5,97.5C 250.747,104.506 248.747,111.172 245.5,117.5C 245.833,117.833 246.167,118.167 246.5,118.5C 247.518,117.807 248.518,117.141 249.5,116.5C 250.538,118.519 251.872,118.853 253.5,117.5C 254.5,117.5 255.5,117.5 256.5,117.5C 265.394,116.937 270.394,112.271 271.5,103.5C 274.82,99.8557 276.82,95.5224 277.5,90.5C 281.561,85.5774 285.894,85.244 290.5,89.5 Z"/></g>
<g><path style="opacity:1" fill="#97542d" d="M 271.5,103.5 C 270.394,112.271 265.394,116.937 256.5,117.5C 258.273,116.108 260.273,114.941 262.5,114C 265.399,110.335 268.399,106.835 271.5,103.5 Z"/></g>
<g><path style="opacity:1" fill="#b2784e" d="M 260.5,96.5 C 260.186,99.9466 259.352,103.28 258,106.5C 256.953,108.708 255.453,110.374 253.5,111.5C 256.036,106.542 258.369,101.542 260.5,96.5 Z"/></g>
<g><path style="opacity:1" fill="#b77851" d="M 276.5,90.5 C 276.833,90.5 277.167,90.5 277.5,90.5C 276.82,95.5224 274.82,99.8557 271.5,103.5C 273.444,99.2775 275.111,94.9442 276.5,90.5 Z"/></g>
<g><path style="opacity:1" fill="#d85f02" d="M 239.5,95.5 C 241.167,95.5 242.833,95.5 244.5,95.5C 244.819,100.646 244.153,105.646 242.5,110.5C 234.922,112.431 227.256,113.265 219.5,113C 212.248,110.394 211.581,106.561 217.5,101.5C 224.787,98.8513 232.121,96.8513 239.5,95.5 Z"/></g>
<g><path style="opacity:1" fill="#401a05" d="M 15.5,101.5 C 15.5,103.833 15.5,106.167 15.5,108.5C 19.1997,110.245 23.1997,111.245 27.5,111.5C 31.5,112.167 35.5,112.833 39.5,113.5C 36.8127,113.336 34.146,113.503 31.5,114C 43.2479,114.675 54.9145,116.008 66.5,118C 67.2524,118.671 67.5858,119.504 67.5,120.5C 61.1567,118.209 54.6567,117.876 48,119.5C 39.8506,118.779 31.684,118.279 23.5,118C 21.3475,115.835 18.6808,115.002 15.5,115.5C 15.5,116.833 15.5,118.167 15.5,119.5C 13.8595,118.853 12.5261,117.853 11.5,116.5C 13.0107,114.162 12.6773,113.496 10.5,114.5C 10.0306,109.227 11.6973,104.893 15.5,101.5 Z"/></g>
<g><path style="opacity:1" fill="#615e59" d="M 166.5,118.5 C 166.293,116.396 166.126,114.063 166,111.5C 165.617,110.944 165.117,110.611 164.5,110.5C 164.811,109.522 165.478,108.855 166.5,108.5C 168.987,111.975 168.987,115.308 166.5,118.5 Z"/></g>
<g><path style="opacity:1" fill="#7e3914" d="M 260.5,95.5 C 261.748,96.3339 262.415,97.6672 262.5,99.5C 262.328,101.548 261.995,103.548 261.5,105.5C 259.969,110.345 257.302,114.345 253.5,117.5C 251.872,118.853 250.538,118.519 249.5,116.5C 250.604,114.611 251.937,112.945 253.5,111.5C 255.453,110.374 256.953,108.708 258,106.5C 259.352,103.28 260.186,99.9466 260.5,96.5C 260.5,96.1667 260.5,95.8333 260.5,95.5 Z"/></g>
<g><path style="opacity:1" fill="#e57d15" d="M 164.5,99.5 C 164.489,101.017 163.823,102.184 162.5,103C 158.554,104.306 154.888,106.139 151.5,108.5C 154.482,109.332 157.482,109.499 160.5,109C 159.748,109.671 159.414,110.504 159.5,111.5C 158.1,114.687 156.266,117.687 154,120.5C 151.333,119.833 148.667,119.167 146,118.5C 145.333,116.167 145.333,113.833 146,111.5C 147.961,109.147 150.127,106.98 152.5,105C 157.137,104.406 161.137,102.572 164.5,99.5 Z"/></g>
<g><path style="opacity:1" fill="#ede6e1" d="M 163.5,110.5 C 163.833,110.5 164.167,110.5 164.5,110.5C 165.117,110.611 165.617,110.944 166,111.5C 166.126,114.063 166.293,116.396 166.5,118.5C 167.5,118.833 168.167,119.5 168.5,120.5C 168.167,120.5 167.833,120.5 167.5,120.5C 164.833,119.833 162.167,119.167 159.5,118.5C 159.5,117.833 159.5,117.167 159.5,116.5C 160.222,116.082 160.722,115.416 161,114.5C 162.666,115.34 162.833,114.84 161.5,113C 162.381,112.292 163.047,111.458 163.5,110.5 Z"/></g>
<g><path style="opacity:1" fill="#161312" d="M 188.5,102.5 C 190.167,104.833 192.167,106.833 194.5,108.5C 194.877,110.258 195.544,111.925 196.5,113.5C 195.451,115.216 194.118,116.549 192.5,117.5C 190.183,118.907 187.683,119.907 185,120.5C 183.566,120.138 182.399,119.472 181.5,118.5C 184.133,117.34 184.966,115.34 184,112.5C 183.329,111.748 182.496,111.414 181.5,111.5C 181.46,108.119 181.793,104.786 182.5,101.5C 184.565,101.517 186.565,101.85 188.5,102.5 Z"/></g>
<g><path style="opacity:1" fill="#58290c" d="M 67.5,120.5 C 69.099,120.232 70.4324,120.566 71.5,121.5C 68.4475,121.572 65.7808,122.572 63.5,124.5C 63.5,123.167 63.5,121.833 63.5,120.5C 48.5252,120.731 33.5252,120.398 18.5,119.5C 18.2627,120.791 18.596,121.791 19.5,122.5C 19.5,123.5 19.5,124.5 19.5,125.5C 18.8333,125.167 18.1667,124.833 17.5,124.5C 15.7868,123.365 15.1201,121.698 15.5,119.5C 15.5,118.167 15.5,116.833 15.5,115.5C 18.6808,115.002 21.3475,115.835 23.5,118C 31.684,118.279 39.8506,118.779 48,119.5C 54.6567,117.876 61.1567,118.209 67.5,120.5 Z"/></g>
<g><path style="opacity:1" fill="#a7a8ac" d="M 297.5,96.5 C 297.833,96.5 298.167,96.5 298.5,96.5C 300.88,99.7624 301.88,103.429 301.5,107.5C 301.5,112.167 301.5,116.833 301.5,121.5C 300.655,122.671 299.989,124.005 299.5,125.5C 298.685,124.571 297.852,123.571 297,122.5C 296.617,123.056 296.117,123.389 295.5,123.5C 294.928,122.027 294.095,120.693 293,119.5C 292.498,122.513 291.998,125.513 291.5,128.5C 290.609,127.739 289.942,126.739 289.5,125.5C 290.149,121.808 290.482,118.141 290.5,114.5C 290.167,113.5 289.5,112.833 288.5,112.5C 287.824,113.602 287.158,114.602 286.5,115.5C 286.505,111.466 286.838,107.466 287.5,103.5C 290.085,106.179 291.752,109.512 292.5,113.5C 293.451,112.674 294.451,112.508 295.5,113C 294.154,115.794 294.654,118.294 297,120.5C 298.149,118.203 299.315,115.87 300.5,113.5C 300.167,111.167 299.167,110.833 297.5,112.5C 296.304,112.154 296.304,111.654 297.5,111C 296.167,110.667 294.833,110.333 293.5,110C 295.519,109.55 297.352,108.717 299,107.5C 299.758,103.643 299.258,99.9767 297.5,96.5 Z"/></g>
<g><path style="opacity:1" fill="#1e1d1d" d="M 159.5,119.5 C 159.5,119.167 159.5,118.833 159.5,118.5C 162.167,119.167 164.833,119.833 167.5,120.5C 171.691,123.22 171.358,123.887 166.5,122.5C 164.046,121.773 161.713,120.773 159.5,119.5 Z"/></g>
<g><path style="opacity:1" fill="#933709" d="M 249.5,90.5 C 237.237,91.3251 225.237,93.4918 213.5,97C 211.594,99.181 209.428,101.014 207,102.5C 206.303,108.537 206.47,114.537 207.5,120.5C 215.662,121.401 223.496,121.401 231,120.5C 231.5,121 232,121.5 232.5,122C 228.544,124.708 224.211,126.541 219.5,127.5C 218.127,127.657 216.793,127.49 215.5,127C 212.913,124.512 209.913,122.679 206.5,121.5C 205.991,113.284 204.991,105.284 203.5,97.5C 204.975,95.5905 206.975,94.4238 209.5,94C 214.779,92.5132 220.112,91.3465 225.5,90.5C 233.442,89.651 241.442,89.651 249.5,90.5 Z"/></g>
<g><path style="opacity:1" fill="#1f1212" d="M 11.5,116.5 C 12.5261,117.853 13.8595,118.853 15.5,119.5C 15.1201,121.698 15.7868,123.365 17.5,124.5C 17.4142,125.496 17.7476,126.329 18.5,127C 26.9306,129.847 35.5972,131.347 44.5,131.5C 47.1667,131.5 49.8333,131.5 52.5,131.5C 56.1869,130.02 59.8536,128.686 63.5,127.5C 63.5,128.833 63.5,130.167 63.5,131.5C 61.8008,131.34 60.1341,131.506 58.5,132C 57.1667,133 57.1667,134 58.5,135C 56.1667,135.167 53.8333,135.333 51.5,135.5C 40.1008,134.497 28.7675,133.164 17.5,131.5C 16.2867,131.747 15.62,132.414 15.5,133.5C 14.391,133.557 13.391,133.89 12.5,134.5C 11.1045,130.409 10.4379,126.076 10.5,121.5C 11.038,119.883 11.3713,118.216 11.5,116.5 Z"/></g>
<g><path style="opacity:1" fill="#763704" d="M 63.5,124.5 C 63.5,125.5 63.5,126.5 63.5,127.5C 59.8536,128.686 56.1869,130.02 52.5,131.5C 55.1783,128.668 57.5116,125.501 59.5,122C 57.9343,121.7 56.601,122.2 55.5,123.5C 44.1809,124.461 32.8476,124.628 21.5,124C 20.9558,123.283 20.2891,122.783 19.5,122.5C 18.596,121.791 18.2627,120.791 18.5,119.5C 33.5252,120.398 48.5252,120.731 63.5,120.5C 63.5,121.833 63.5,123.167 63.5,124.5 Z"/></g>
<g><path style="opacity:1" fill="#f4ede8" d="M 159.5,119.5 C 161.713,120.773 164.046,121.773 166.5,122.5C 165.432,123.434 164.099,123.768 162.5,123.5C 161.5,123.5 160.5,123.5 159.5,123.5C 159.167,123.5 158.833,123.5 158.5,123.5C 158.232,121.901 158.566,120.568 159.5,119.5 Z"/></g>
<g><path style="opacity:1" fill="#5a5253" d="M 181.5,111.5 C 182.496,111.414 183.329,111.748 184,112.5C 184.966,115.34 184.133,117.34 181.5,118.5C 180.957,118.56 180.624,118.893 180.5,119.5C 181.782,121.179 182.782,123.013 183.5,125C 181.892,125.658 180.725,125.158 180,123.5C 179.536,124.094 179.369,124.761 179.5,125.5C 176.243,123.845 176.077,122.178 179,120.5C 179.495,118.527 179.662,116.527 179.5,114.5C 180.401,113.71 181.068,112.71 181.5,111.5 Z"/></g>
<g><path style="opacity:1" fill="#161514" d="M 193.5,121.5 C 182.173,125.512 181.839,124.846 192.5,119.5C 198.46,117.129 198.794,117.796 193.5,121.5 Z"/></g>
<g><path style="opacity:1" fill="#93908e" d="M 194.5,108.5 C 195.79,109.058 196.623,110.058 197,111.5C 198.802,116.178 199.969,121.012 200.5,126C 200.347,132.302 198.347,137.802 194.5,142.5C 197.758,136.144 198.758,129.477 197.5,122.5C 195.929,123.309 194.262,123.643 192.5,123.5C 192.918,122.778 193.584,122.278 194.5,122C 194.272,121.601 193.938,121.435 193.5,121.5C 198.794,117.796 198.46,117.129 192.5,119.5C 193.506,118.604 193.506,117.938 192.5,117.5C 194.118,116.549 195.451,115.216 196.5,113.5C 195.544,111.925 194.877,110.258 194.5,108.5 Z"/></g>
<g><path style="opacity:1" fill="#312a2b" d="M 179.5,114.5 C 179.662,116.527 179.495,118.527 179,120.5C 176.077,122.178 176.243,123.845 179.5,125.5C 179.267,127.062 178.6,128.395 177.5,129.5C 175.272,128.678 174.605,127.345 175.5,125.5C 174.726,124.289 173.893,124.289 173,125.5C 172.626,124.584 172.126,123.75 171.5,123C 173.833,121.333 176.167,119.667 178.5,118C 177.464,116.224 177.464,114.391 178.5,112.5C 178.335,108.818 178.501,105.152 179,101.5C 179.499,105.821 179.666,110.154 179.5,114.5 Z"/></g>
<g><path style="opacity:1" fill="#ec7f18" d="M 265.5,122.5 C 261.193,123.327 256.86,123.993 252.5,124.5C 250.167,124.5 247.833,124.5 245.5,124.5C 245.5,123.5 245.5,122.5 245.5,121.5C 250.006,119.091 254.673,119.091 259.5,121.5C 261.768,120.456 264.101,120.289 266.5,121C 265.944,121.383 265.611,121.883 265.5,122.5 Z"/></g>
<g><path style="opacity:1" fill="#1f1f25" d="M 295.5,123.5 C 296.511,125.402 296.678,127.402 296,129.5C 294.397,129.129 292.897,128.795 291.5,128.5C 291.998,125.513 292.498,122.513 293,119.5C 294.095,120.693 294.928,122.027 295.5,123.5 Z"/></g>
<g><path style="opacity:1" fill="#070606" d="M 287.5,103.5 C 286.838,107.466 286.505,111.466 286.5,115.5C 286.345,121.914 288.012,127.747 291.5,133C 296.514,133.157 299.181,130.657 299.5,125.5C 299.989,124.005 300.655,122.671 301.5,121.5C 305.167,121.5 308.833,121.5 312.5,121.5C 312.5,126.833 312.5,132.167 312.5,137.5C 306.578,137.764 300.911,138.764 295.5,140.5C 290.9,140.28 286.567,140.946 282.5,142.5C 270.162,143.839 258.496,147.172 247.5,152.5C 197.236,161.808 146.569,165.475 95.5,163.5C 74.876,162.841 54.5427,160.007 34.5,155C 30.3837,153.795 26.3837,152.295 22.5,150.5C 19.3938,146.531 20.3938,144.031 25.5,143C 28.1013,142.08 30.7679,141.413 33.5,141C 29.0829,140.772 24.7496,140.272 20.5,139.5C 20.0825,138.778 19.4158,138.278 18.5,138C 19.3333,137.833 20.1667,137.667 21,137.5C 35.2691,139.097 49.4357,140.931 63.5,143C 60.9109,141.803 58.2442,140.803 55.5,140C 41.9905,138.714 28.6572,136.547 15.5,133.5C 15.62,132.414 16.2867,131.747 17.5,131.5C 28.7675,133.164 40.1008,134.497 51.5,135.5C 53.8333,135.333 56.1667,135.167 58.5,135C 57.1667,134 57.1667,133 58.5,132C 60.1341,131.506 61.8008,131.34 63.5,131.5C 63.5,130.167 63.5,128.833 63.5,127.5C 63.5,126.5 63.5,125.5 63.5,124.5C 65.7808,122.572 68.4475,121.572 71.5,121.5C 84.8336,120.936 98.167,120.77 111.5,121C 112.333,123.081 112.333,125.248 111.5,127.5C 111.5,128.167 111.5,128.833 111.5,129.5C 107.141,133.528 102.807,137.528 98.5,141.5C 97.2905,141.932 96.2905,142.599 95.5,143.5C 93.847,143.66 92.5137,144.326 91.5,145.5C 88.6987,146.735 86.0321,148.235 83.5,150C 106.095,152.928 128.761,153.261 151.5,151C 152.056,150.617 152.389,150.117 152.5,149.5C 153.674,148.486 154.34,147.153 154.5,145.5C 155.167,141.833 155.833,138.167 156.5,134.5C 157.865,141.513 161.531,146.846 167.5,150.5C 168.6,151.558 169.934,152.392 171.5,153C 176.204,153.648 180.871,153.481 185.5,152.5C 186.151,153.091 186.818,153.757 187.5,154.5C 192.841,151.8 196.841,147.8 199.5,142.5C 219.413,138.593 239.08,134.093 258.5,129C 265.5,128.423 272.5,127.923 279.5,127.5C 281.135,122.292 282.135,116.958 282.5,111.5C 283.167,111.5 283.833,111.5 284.5,111.5C 285.071,108.105 286.071,105.438 287.5,103.5 Z"/></g>
<g><path style="opacity:1" fill="#5e5c5e" d="M 11.5,116.5 C 11.3713,118.216 11.038,119.883 10.5,121.5C 8.61621,122.382 7.28288,123.882 6.5,126C 4.18732,126.662 1.85398,127.162 -0.5,127.5C -0.5,124.5 -0.5,121.5 -0.5,118.5C 3.11853,117.756 6.78519,117.423 10.5,117.5C 10.5,116.5 10.5,115.5 10.5,114.5C 12.6773,113.496 13.0107,114.162 11.5,116.5 Z"/></g>
<g><path style="opacity:1" fill="#3b170d" d="M 71.5,111.5 C 71.1193,112.931 70.1193,113.764 68.5,114C 71.5535,114.179 74.5535,114.679 77.5,115.5C 75.5767,116.308 73.5767,116.808 71.5,117C 70.1667,117.667 70.1667,118.333 71.5,119C 85.496,119.5 99.496,119.667 113.5,119.5C 113.579,118.07 113.246,116.736 112.5,115.5C 101.498,115.128 90.4985,114.794 79.5,114.5C 83.1333,113.588 86.7999,112.921 90.5,112.5C 97.9039,113.825 105.237,113.492 112.5,111.5C 113.646,112.145 114.646,112.978 115.5,114C 114.594,115.699 114.261,117.533 114.5,119.5C 114.5,122.167 114.5,124.833 114.5,127.5C 113.5,127.5 112.5,127.5 111.5,127.5C 112.333,125.248 112.333,123.081 111.5,121C 98.167,120.77 84.8336,120.936 71.5,121.5C 70.4324,120.566 69.099,120.232 67.5,120.5C 67.5858,119.504 67.2524,118.671 66.5,118C 54.9145,116.008 43.2479,114.675 31.5,114C 34.146,113.503 36.8127,113.336 39.5,113.5C 50.2398,113.716 60.9065,113.049 71.5,111.5 Z"/></g>
<g><path style="opacity:1" fill="#a53f01" d="M 166.5,95.5 C 165.493,96.8284 164.16,97.8284 162.5,98.5C 156.391,100.141 150.391,101.974 144.5,104C 142.83,106.595 140.996,109.095 139,111.5C 138.502,114.482 138.335,117.482 138.5,120.5C 142.217,120.711 145.717,121.711 149,123.5C 150.326,123.245 151.326,122.578 152,121.5C 152.934,122.858 153.768,124.192 154.5,125.5C 154.389,126.117 154.056,126.617 153.5,127C 147.804,127.83 142.137,127.663 136.5,126.5C 135.396,124.611 134.063,122.945 132.5,121.5C 131.343,118.216 131.176,114.882 132,111.5C 134.035,108.439 135.201,105.105 135.5,101.5C 145.844,99.5654 156.177,97.5654 166.5,95.5 Z"/></g>
<g><path style="opacity:1" fill="#af5a08" d="M 19.5,122.5 C 20.2891,122.783 20.9558,123.283 21.5,124C 32.8476,124.628 44.1809,124.461 55.5,123.5C 55.5,123.833 55.5,124.167 55.5,124.5C 47.811,127.154 39.811,128.154 31.5,127.5C 27.2095,127.802 23.2095,127.136 19.5,125.5C 19.5,124.5 19.5,123.5 19.5,122.5 Z"/></g>
<g><path style="opacity:1" fill="#d5d3d1" d="M 192.5,117.5 C 193.506,117.938 193.506,118.604 192.5,119.5C 181.839,124.846 182.173,125.512 193.5,121.5C 193.938,121.435 194.272,121.601 194.5,122C 193.584,122.278 192.918,122.778 192.5,123.5C 191.833,123.5 191.167,123.5 190.5,123.5C 189.29,123.932 188.29,124.599 187.5,125.5C 185.05,125.874 184.05,127.374 184.5,130C 184.393,132.221 185.06,134.054 186.5,135.5C 186.932,136.71 187.599,137.71 188.5,138.5C 188.5,139.167 188.833,139.5 189.5,139.5C 189.158,140.338 188.492,140.672 187.5,140.5C 186.167,138.167 184.833,135.833 183.5,133.5C 183.068,132.29 182.401,131.29 181.5,130.5C 180.053,129.115 179.053,129.448 178.5,131.5C 177.662,131.158 177.328,130.492 177.5,129.5C 178.6,128.395 179.267,127.062 179.5,125.5C 179.369,124.761 179.536,124.094 180,123.5C 180.725,125.158 181.892,125.658 183.5,125C 182.782,123.013 181.782,121.179 180.5,119.5C 180.624,118.893 180.957,118.56 181.5,118.5C 182.399,119.472 183.566,120.138 185,120.5C 187.683,119.907 190.183,118.907 192.5,117.5 Z"/></g>
<g><path style="opacity:1" fill="#5f1d04" d="M 281.5,111.5 C 281.064,113.746 280.397,115.913 279.5,118C 269.973,124.026 259.64,126.859 248.5,126.5C 249.833,125.833 251.167,125.167 252.5,124.5C 256.86,123.993 261.193,123.327 265.5,122.5C 269.799,120.224 274.133,117.89 278.5,115.5C 279.057,113.668 280.057,112.335 281.5,111.5 Z"/></g>
<g><path style="opacity:1" fill="#732b0a" d="M 199.5,96.5 C 200.708,97.2341 202.041,97.5674 203.5,97.5C 204.991,105.284 205.991,113.284 206.5,121.5C 209.913,122.679 212.913,124.512 215.5,127C 216.793,127.49 218.127,127.657 219.5,127.5C 217.167,128.833 214.833,130.167 212.5,131.5C 210.152,131.592 208.486,132.592 207.5,134.5C 207.19,135.738 206.69,135.738 206,134.5C 205.802,132.618 205.302,130.952 204.5,129.5C 204.5,128.833 204.5,128.167 204.5,127.5C 204.666,122.156 204.499,116.823 204,111.5C 203.384,106.159 201.884,101.159 199.5,96.5 Z"/></g>
<g><path style="opacity:1" fill="#e89430" d="M 245.5,121.5 C 245.5,122.5 245.5,123.5 245.5,124.5C 247.833,124.5 250.167,124.5 252.5,124.5C 251.167,125.167 249.833,125.833 248.5,126.5C 248.167,126.5 247.833,126.5 247.5,126.5C 239.596,128.213 231.596,129.546 223.5,130.5C 223.158,129.662 222.492,129.328 221.5,129.5C 229.235,126.313 237.235,123.646 245.5,121.5 Z"/></g>
<g><path style="opacity:1" fill="#ce7e09" d="M 55.5,124.5 C 55.1412,126.371 54.1412,127.871 52.5,129C 47.5111,129.499 42.5111,129.666 37.5,129.5C 35.2143,129.405 33.2143,128.738 31.5,127.5C 39.811,128.154 47.811,127.154 55.5,124.5 Z"/></g>
<g><path style="opacity:1" fill="#f7be69" d="M 52.5,131.5 C 49.8333,131.5 47.1667,131.5 44.5,131.5C 42.1667,130.833 39.8333,130.167 37.5,129.5C 42.5111,129.666 47.5111,129.499 52.5,129C 54.1412,127.871 55.1412,126.371 55.5,124.5C 55.5,124.167 55.5,123.833 55.5,123.5C 56.601,122.2 57.9343,121.7 59.5,122C 57.5116,125.501 55.1783,128.668 52.5,131.5 Z"/></g>
<g><path style="opacity:1" fill="#c29155" d="M 17.5,124.5 C 18.1667,124.833 18.8333,125.167 19.5,125.5C 23.2095,127.136 27.2095,127.802 31.5,127.5C 33.2143,128.738 35.2143,129.405 37.5,129.5C 39.8333,130.167 42.1667,130.833 44.5,131.5C 35.5972,131.347 26.9306,129.847 18.5,127C 17.7476,126.329 17.4142,125.496 17.5,124.5 Z"/></g>
<g><path style="opacity:1" fill="#5c2102" d="M 131.5,101.5 C 128.554,106.052 126.221,111.052 124.5,116.5C 122.333,117.792 120,118.625 117.5,119C 116.62,120.356 116.286,121.856 116.5,123.5C 117.172,124.267 118.005,124.934 119,125.5C 121.77,124.675 124.437,124.341 127,124.5C 127.251,126.433 127.751,128.266 128.5,130C 127.594,131.699 127.261,133.533 127.5,135.5C 124.552,135.777 121.719,135.444 119,134.5C 118.667,135.167 118.333,135.833 118,136.5C 116.806,134.377 116.14,132.043 116,129.5C 114.586,128.587 113.086,128.587 111.5,129.5C 111.5,128.833 111.5,128.167 111.5,127.5C 112.5,127.5 113.5,127.5 114.5,127.5C 114.5,124.833 114.5,122.167 114.5,119.5C 115.998,116.669 118.331,115.002 121.5,114.5C 120.136,111.396 120.302,108.396 122,105.5C 125.248,104.254 128.415,102.921 131.5,101.5 Z"/></g>
<g><path style="opacity:1" fill="#703505" d="M 159.5,113.5 C 159.5,114.5 159.5,115.5 159.5,116.5C 159.5,117.167 159.5,117.833 159.5,118.5C 159.5,118.833 159.5,119.167 159.5,119.5C 158.566,120.568 158.232,121.901 158.5,123.5C 157.232,125.905 156.565,128.572 156.5,131.5C 156.5,132.5 156.5,133.5 156.5,134.5C 155.833,138.167 155.167,141.833 154.5,145.5C 152.363,146.787 150.03,147.621 147.5,148C 129.833,148.667 112.167,148.667 94.5,148C 93.4734,147.487 92.4734,146.987 91.5,146.5C 91.5,146.167 91.5,145.833 91.5,145.5C 92.5137,144.326 93.847,143.66 95.5,143.5C 95.5,143.833 95.5,144.167 95.5,144.5C 95.5,145.5 95.5,146.5 95.5,147.5C 111.524,147.755 127.524,147.422 143.5,146.5C 145.857,146.663 148.19,146.497 150.5,146C 152.376,145.082 153.376,143.582 153.5,141.5C 153.5,140.5 153.5,139.5 153.5,138.5C 139.524,139.626 125.524,140.293 111.5,140.5C 111.799,138.396 111.466,136.396 110.5,134.5C 109.478,134.855 108.811,135.522 108.5,136.5C 105.873,136.79 104.206,138.124 103.5,140.5C 101.784,140.629 100.117,140.962 98.5,141.5C 102.807,137.528 107.141,133.528 111.5,129.5C 113.086,128.587 114.586,128.587 116,129.5C 116.14,132.043 116.806,134.377 118,136.5C 118.333,135.833 118.667,135.167 119,134.5C 121.719,135.444 124.552,135.777 127.5,135.5C 127.261,133.533 127.594,131.699 128.5,130C 127.751,128.266 127.251,126.433 127,124.5C 124.437,124.341 121.77,124.675 119,125.5C 118.005,124.934 117.172,124.267 116.5,123.5C 120.5,123.5 124.5,123.5 128.5,123.5C 129.296,129.399 132.629,133.065 138.5,134.5C 139.833,133.167 141.167,133.167 142.5,134.5C 143.167,133.833 143.833,133.167 144.5,132.5C 147.333,134.374 150.167,135.374 153,135.5C 154.018,131.093 155.185,126.759 156.5,122.5C 157.632,119.449 158.632,116.449 159.5,113.5 Z"/></g>
<g><path style="opacity:1" fill="#803003" d="M 175.5,88.5 C 175.5,89.5 175.5,90.5 175.5,91.5C 172.148,91.53 169.482,92.8633 167.5,95.5C 167.167,95.5 166.833,95.5 166.5,95.5C 156.177,97.5654 145.844,99.5654 135.5,101.5C 135.201,105.105 134.035,108.439 132,111.5C 131.176,114.882 131.343,118.216 132.5,121.5C 134.063,122.945 135.396,124.611 136.5,126.5C 142.137,127.663 147.804,127.83 153.5,127C 154.056,126.617 154.389,126.117 154.5,125.5C 154.427,123.973 155.094,122.973 156.5,122.5C 155.185,126.759 154.018,131.093 153,135.5C 150.167,135.374 147.333,134.374 144.5,132.5C 143.833,133.167 143.167,133.833 142.5,134.5C 141.167,133.167 139.833,133.167 138.5,134.5C 132.629,133.065 129.296,129.399 128.5,123.5C 124.5,123.5 120.5,123.5 116.5,123.5C 116.286,121.856 116.62,120.356 117.5,119C 120,118.625 122.333,117.792 124.5,116.5C 126.221,111.052 128.554,106.052 131.5,101.5C 136.204,97.8145 141.537,95.8145 147.5,95.5C 157.015,94.0404 166.348,91.707 175.5,88.5 Z"/></g>
<g><path style="opacity:1" fill="#14100f" d="M 159.5,123.5 C 160.5,123.5 161.5,123.5 162.5,123.5C 165.296,124.307 168.13,125.307 171,126.5C 171.497,128.81 171.663,131.143 171.5,133.5C 169.648,137.861 166.814,141.528 163,144.5C 161.569,142.636 160.403,140.636 159.5,138.5C 160.847,137.972 162.181,137.805 163.5,138C 162.774,141.031 163.441,140.864 165.5,137.5C 164.271,136.719 162.938,136.219 161.5,136C 165.114,131.461 164.114,127.795 158.5,125C 159.056,124.617 159.389,124.117 159.5,123.5 Z"/></g>
<g><path style="opacity:1" fill="#232322" d="M 181.5,130.5 C 180.779,132.382 179.779,132.715 178.5,131.5C 179.053,129.448 180.053,129.115 181.5,130.5 Z"/></g>
<g><path style="opacity:1" fill="#4d4c50" d="M 291.5,128.5 C 292.897,128.795 294.397,129.129 296,129.5C 296.678,127.402 296.511,125.402 295.5,123.5C 296.117,123.389 296.617,123.056 297,122.5C 297.852,123.571 298.685,124.571 299.5,125.5C 299.181,130.657 296.514,133.157 291.5,133C 288.012,127.747 286.345,121.914 286.5,115.5C 287.158,114.602 287.824,113.602 288.5,112.5C 289.5,112.833 290.167,113.5 290.5,114.5C 290.482,118.141 290.149,121.808 289.5,125.5C 289.942,126.739 290.609,127.739 291.5,128.5 Z"/></g>
<g><path style="opacity:1" fill="#37190e" d="M 281.5,111.5 C 281.833,111.5 282.167,111.5 282.5,111.5C 282.135,116.958 281.135,122.292 279.5,127.5C 272.5,127.923 265.5,128.423 258.5,129C 239.08,134.093 219.413,138.593 199.5,142.5C 201.027,137.368 202.693,132.368 204.5,127.5C 204.5,128.167 204.5,128.833 204.5,129.5C 204.5,132.167 204.5,134.833 204.5,137.5C 217.643,134.022 230.976,131.355 244.5,129.5C 246.175,129.132 247.175,128.132 247.5,126.5C 247.833,126.5 248.167,126.5 248.5,126.5C 259.64,126.859 269.973,124.026 279.5,118C 280.397,115.913 281.064,113.746 281.5,111.5 Z"/></g>
<g><path style="opacity:1" fill="#2b2a28" d="M 187.5,125.5 C 186.663,128.981 186.33,132.315 186.5,135.5C 185.06,134.054 184.393,132.221 184.5,130C 184.05,127.374 185.05,125.874 187.5,125.5 Z"/></g>
<g><path style="opacity:1" fill="#6b6a68" d="M 190.5,123.5 C 190.909,128.692 190.242,133.692 188.5,138.5C 187.599,137.71 186.932,136.71 186.5,135.5C 186.33,132.315 186.663,128.981 187.5,125.5C 188.29,124.599 189.29,123.932 190.5,123.5 Z"/></g>
<g><path style="opacity:1" fill="#403834" d="M 158.5,123.5 C 158.833,123.5 159.167,123.5 159.5,123.5C 159.389,124.117 159.056,124.617 158.5,125C 164.114,127.795 165.114,131.461 161.5,136C 162.938,136.219 164.271,136.719 165.5,137.5C 163.441,140.864 162.774,141.031 163.5,138C 162.181,137.805 160.847,137.972 159.5,138.5C 158.945,135.904 157.945,133.571 156.5,131.5C 156.565,128.572 157.232,125.905 158.5,123.5 Z"/></g>
<g><path style="opacity:1" fill="#521d06" d="M 247.5,126.5 C 247.175,128.132 246.175,129.132 244.5,129.5C 230.976,131.355 217.643,134.022 204.5,137.5C 204.5,134.833 204.5,132.167 204.5,129.5C 205.302,130.952 205.802,132.618 206,134.5C 206.69,135.738 207.19,135.738 207.5,134.5C 212.821,133.168 218.154,131.834 223.5,130.5C 231.596,129.546 239.596,128.213 247.5,126.5 Z"/></g>
<g><path style="opacity:1" fill="#d89a70" d="M 221.5,129.5 C 222.492,129.328 223.158,129.662 223.5,130.5C 218.154,131.834 212.821,133.168 207.5,134.5C 208.486,132.592 210.152,131.592 212.5,131.5C 215.598,131.244 218.598,130.578 221.5,129.5 Z"/></g>
<g><path style="opacity:1" fill="#1a1817" d="M 194.5,142.5 C 192.589,141.925 190.922,140.925 189.5,139.5C 188.833,139.5 188.5,139.167 188.5,138.5C 190.242,133.692 190.909,128.692 190.5,123.5C 191.167,123.5 191.833,123.5 192.5,123.5C 194.262,123.643 195.929,123.309 197.5,122.5C 198.758,129.477 197.758,136.144 194.5,142.5 Z"/></g>
<g><path style="opacity:1" fill="#575358" d="M 15.5,133.5 C 28.6572,136.547 41.9905,138.714 55.5,140C 58.2442,140.803 60.9109,141.803 63.5,143C 49.4357,140.931 35.2691,139.097 21,137.5C 20.1667,137.667 19.3333,137.833 18.5,138C 19.4158,138.278 20.0825,138.778 20.5,139.5C 18.7839,139.371 17.1172,139.038 15.5,138.5C 14.7888,136.97 13.7888,135.637 12.5,134.5C 13.391,133.89 14.391,133.557 15.5,133.5 Z"/></g>
<g><path style="opacity:1" fill="#9e9fa3" d="M 10.5,121.5 C 10.4379,126.076 11.1045,130.409 12.5,134.5C 13.7888,135.637 14.7888,136.97 15.5,138.5C 13.4204,139.946 11.0871,140.946 8.5,141.5C 6.64868,143.184 4.98201,145.017 3.5,147C 6.8509,148.865 8.8509,151.698 9.5,155.5C 11.3062,157.507 13.3062,159.174 15.5,160.5C 12.8333,160.167 10.1667,159.833 7.5,159.5C 7.71901,158.325 7.38568,157.325 6.5,156.5C 3.91675,154.251 1.58342,151.918 -0.5,149.5C -0.5,142.167 -0.5,134.833 -0.5,127.5C 1.85398,127.162 4.18732,126.662 6.5,126C 7.28288,123.882 8.61621,122.382 10.5,121.5 Z"/></g>
<g><path style="opacity:1" fill="#d6d2d2" d="M 156.5,131.5 C 157.945,133.571 158.945,135.904 159.5,138.5C 160.403,140.636 161.569,142.636 163,144.5C 166.814,141.528 169.648,137.861 171.5,133.5C 171.833,133.5 172.167,133.5 172.5,133.5C 170.83,138.339 168.497,142.839 165.5,147C 166.332,147.688 166.998,147.521 167.5,146.5C 169.608,142.599 171.941,138.933 174.5,135.5C 172.833,140.167 171.167,144.833 169.5,149.5C 168.833,149.833 168.167,150.167 167.5,150.5C 161.531,146.846 157.865,141.513 156.5,134.5C 156.5,133.5 156.5,132.5 156.5,131.5 Z"/></g>
<g><path style="opacity:1" fill="#232021" d="M 174.5,135.5 C 171.941,138.933 169.608,142.599 167.5,146.5C 166.998,147.521 166.332,147.688 165.5,147C 168.497,142.839 170.83,138.339 172.5,133.5C 173.161,132.282 173.828,130.949 174.5,129.5C 175.519,131.46 175.519,133.46 174.5,135.5 Z"/></g>
<g><path style="opacity:1" fill="#8e4b01" d="M 153.5,141.5 C 139.496,141.94 125.496,142.106 111.5,142C 110.956,141.283 110.289,140.783 109.5,140.5C 109.768,138.901 109.434,137.568 108.5,136.5C 108.811,135.522 109.478,134.855 110.5,134.5C 111.466,136.396 111.799,138.396 111.5,140.5C 125.524,140.293 139.524,139.626 153.5,138.5C 153.5,139.5 153.5,140.5 153.5,141.5 Z"/></g>
<g><path style="opacity:1" fill="#20201e" d="M 183.5,133.5 C 184.833,135.833 186.167,138.167 187.5,140.5C 189.195,142.213 190.028,144.213 190,146.5C 187.29,142.247 184.457,138.08 181.5,134C 182.094,133.536 182.761,133.369 183.5,133.5 Z"/></g>
<g><path style="opacity:1" fill="#ae690c" d="M 109.5,140.5 C 110.289,140.783 110.956,141.283 111.5,142C 125.496,142.106 139.496,141.94 153.5,141.5C 153.376,143.582 152.376,145.082 150.5,146C 148.19,146.497 145.857,146.663 143.5,146.5C 146.083,145.776 148.749,144.943 151.5,144C 136.856,144.351 122.19,144.518 107.5,144.5C 107.157,142.517 107.824,141.183 109.5,140.5 Z"/></g>
<g><path style="opacity:1" fill="#1b1a19" d="M 169.5,149.5 C 171.167,144.833 172.833,140.167 174.5,135.5C 177.163,133.033 179.663,133.366 182,136.5C 189.93,150.251 186.097,155.085 170.5,151C 169.944,150.617 169.611,150.117 169.5,149.5 Z"/></g>
<g><path style="opacity:1" fill="#c88624" d="M 108.5,136.5 C 109.434,137.568 109.768,138.901 109.5,140.5C 107.824,141.183 107.157,142.517 107.5,144.5C 122.19,144.518 136.856,144.351 151.5,144C 148.749,144.943 146.083,145.776 143.5,146.5C 127.524,147.422 111.524,147.755 95.5,147.5C 95.5,146.5 95.5,145.5 95.5,144.5C 108.699,146.568 122.032,147.068 135.5,146C 125.172,145.5 114.839,145.334 104.5,145.5C 104.784,143.585 104.451,141.919 103.5,140.5C 104.206,138.124 105.873,136.79 108.5,136.5 Z"/></g>
<g><path style="opacity:1" fill="#ebb14c" d="M 103.5,140.5 C 104.451,141.919 104.784,143.585 104.5,145.5C 114.839,145.334 125.172,145.5 135.5,146C 122.032,147.068 108.699,146.568 95.5,144.5C 95.5,144.167 95.5,143.833 95.5,143.5C 96.2905,142.599 97.2905,141.932 98.5,141.5C 100.117,140.962 101.784,140.629 103.5,140.5 Z"/></g>
<g><path style="opacity:1" fill="#a5a3a1" d="M 176.5,110.5 C 177.167,111.167 177.833,111.833 178.5,112.5C 177.464,114.391 177.464,116.224 178.5,118C 176.167,119.667 173.833,121.333 171.5,123C 172.126,123.75 172.626,124.584 173,125.5C 173.893,124.289 174.726,124.289 175.5,125.5C 174.605,127.345 175.272,128.678 177.5,129.5C 177.328,130.492 177.662,131.158 178.5,131.5C 179.779,132.715 180.779,132.382 181.5,130.5C 182.401,131.29 183.068,132.29 183.5,133.5C 182.761,133.369 182.094,133.536 181.5,134C 184.457,138.08 187.29,142.247 190,146.5C 190.028,144.213 189.195,142.213 187.5,140.5C 188.492,140.672 189.158,140.338 189.5,139.5C 190.922,140.925 192.589,141.925 194.5,142.5C 192.205,146.462 189.205,149.795 185.5,152.5C 180.871,153.481 176.204,153.648 171.5,153C 169.934,152.392 168.6,151.558 167.5,150.5C 168.167,150.167 168.833,149.833 169.5,149.5C 169.611,150.117 169.944,150.617 170.5,151C 186.097,155.085 189.93,150.251 182,136.5C 179.663,133.366 177.163,133.033 174.5,135.5C 175.519,133.46 175.519,131.46 174.5,129.5C 173.828,130.949 173.161,132.282 172.5,133.5C 172.167,133.5 171.833,133.5 171.5,133.5C 171.663,131.143 171.497,128.81 171,126.5C 168.13,125.307 165.296,124.307 162.5,123.5C 164.099,123.768 165.432,123.434 166.5,122.5C 171.358,123.887 171.691,123.22 167.5,120.5C 167.833,120.5 168.167,120.5 168.5,120.5C 175.147,120.509 177.814,117.175 176.5,110.5 Z"/></g>
<g><path style="opacity:1" fill="#572b02" d="M 154.5,145.5 C 154.34,147.153 153.674,148.486 152.5,149.5C 131.853,150.608 111.187,150.774 90.5,150C 89.8333,149.667 89.1667,149.333 88.5,149C 89.5707,148.148 90.5707,147.315 91.5,146.5C 92.4734,146.987 93.4734,147.487 94.5,148C 112.167,148.667 129.833,148.667 147.5,148C 150.03,147.621 152.363,146.787 154.5,145.5 Z"/></g>
<g><path style="opacity:1" fill="#8f8f91" d="M 224.5,164.5 C 224.918,163.778 225.584,163.278 226.5,163C 233.829,163.234 240.829,161.901 247.5,159C 246.167,158.667 244.833,158.333 243.5,158C 246.688,157.245 249.855,156.411 253,155.5C 255.366,156.938 255.866,156.438 254.5,154C 252.134,153.56 249.801,153.06 247.5,152.5C 258.496,147.172 270.162,143.839 282.5,142.5C 284.92,142.292 287.253,142.626 289.5,143.5C 290.969,141.625 292.802,141.625 295,143.5C 295.49,144.793 295.657,146.127 295.5,147.5C 290.132,147.426 285.132,148.759 280.5,151.5C 278.931,154.377 277.264,157.044 275.5,159.5C 271.954,159.559 268.621,160.392 265.5,162C 251.828,162.834 238.161,163.667 224.5,164.5 Z"/></g>
<g><path style="opacity:1" fill="#5b5e60" d="M 312.5,137.5 C 312.5,141.5 312.5,145.5 312.5,149.5C 307.041,151.789 301.375,153.455 295.5,154.5C 296.582,152.661 297.415,150.661 298,148.5C 301.999,148.022 303.165,146.022 301.5,142.5C 299.589,141.523 297.589,140.857 295.5,140.5C 300.911,138.764 306.578,137.764 312.5,137.5 Z"/></g>
<g><path style="opacity:1" fill="#402615" d="M 91.5,145.5 C 91.5,145.833 91.5,146.167 91.5,146.5C 90.5707,147.315 89.5707,148.148 88.5,149C 89.1667,149.333 89.8333,149.667 90.5,150C 111.187,150.774 131.853,150.608 152.5,149.5C 152.389,150.117 152.056,150.617 151.5,151C 128.761,153.261 106.095,152.928 83.5,150C 86.0321,148.235 88.6987,146.735 91.5,145.5 Z"/></g>
<g><path style="opacity:1" fill="#c0c0c4" d="M 15.5,138.5 C 17.1172,139.038 18.7839,139.371 20.5,139.5C 24.7496,140.272 29.0829,140.772 33.5,141C 30.7679,141.413 28.1013,142.08 25.5,143C 20.3938,144.031 19.3938,146.531 22.5,150.5C 26.3837,152.295 30.3837,153.795 34.5,155C 54.5427,160.007 74.876,162.841 95.5,163.5C 81.3393,164.661 67.0059,164.827 52.5,164C 41.5759,162.229 30.5759,161.395 19.5,161.5C 17.901,161.768 16.5676,161.434 15.5,160.5C 13.3062,159.174 11.3062,157.507 9.5,155.5C 8.8509,151.698 6.8509,148.865 3.5,147C 4.98201,145.017 6.64868,143.184 8.5,141.5C 11.0871,140.946 13.4204,139.946 15.5,138.5 Z"/></g>
<g><path style="opacity:1" fill="#040302" d="M 312.5,160.5 C 312.5,172.167 312.5,183.833 312.5,195.5C 208.167,195.5 103.833,195.5 -0.5,195.5C -0.5,187.167 -0.5,178.833 -0.5,170.5C 2.8499,170.335 6.18323,170.502 9.5,171C 27.35,174.304 45.1833,177.471 63,180.5C 65.0745,179.866 67.2412,179.532 69.5,179.5C 82.6534,180.416 95.8201,181.083 109,181.5C 145.161,181.086 181.328,180.919 217.5,181C 218.729,180.219 220.062,179.719 221.5,179.5C 230.366,179.287 239.199,179.287 248,179.5C 269.571,173.564 291.071,167.23 312.5,160.5 Z"/></g>
<g><path style="opacity:1" fill="#7e7d7b" d="M 295.5,140.5 C 297.589,140.857 299.589,141.523 301.5,142.5C 303.165,146.022 301.999,148.022 298,148.5C 297.415,150.661 296.582,152.661 295.5,154.5C 292.813,154.336 290.146,154.503 287.5,155C 288.624,155.249 289.624,155.749 290.5,156.5C 287.343,157.717 284.343,159.217 281.5,161C 243.777,166.721 205.777,169.721 167.5,170C 120.741,171.541 74.0741,170.208 27.5,166C 17.9489,164.578 8.61557,162.411 -0.5,159.5C -0.5,156.167 -0.5,152.833 -0.5,149.5C 1.58342,151.918 3.91675,154.251 6.5,156.5C 7.38568,157.325 7.71901,158.325 7.5,159.5C 10.1667,159.833 12.8333,160.167 15.5,160.5C 16.5676,161.434 17.901,161.768 19.5,161.5C 23.2335,162.977 27.2335,163.811 31.5,164C 82.7695,167.316 134.103,168.316 185.5,167C 198.601,166.831 211.601,165.998 224.5,164.5C 238.161,163.667 251.828,162.834 265.5,162C 268.621,160.392 271.954,159.559 275.5,159.5C 277.264,157.044 278.931,154.377 280.5,151.5C 285.132,148.759 290.132,147.426 295.5,147.5C 295.657,146.127 295.49,144.793 295,143.5C 292.802,141.625 290.969,141.625 289.5,143.5C 287.253,142.626 284.92,142.292 282.5,142.5C 286.567,140.946 290.9,140.28 295.5,140.5 Z"/></g>
<g><path style="opacity:1" fill="#a9a9a9" d="M 247.5,152.5 C 249.801,153.06 252.134,153.56 254.5,154C 255.866,156.438 255.366,156.938 253,155.5C 249.855,156.411 246.688,157.245 243.5,158C 244.833,158.333 246.167,158.667 247.5,159C 240.829,161.901 233.829,163.234 226.5,163C 225.584,163.278 224.918,163.778 224.5,164.5C 211.601,165.998 198.601,166.831 185.5,167C 134.103,168.316 82.7695,167.316 31.5,164C 27.2335,163.811 23.2335,162.977 19.5,161.5C 30.5759,161.395 41.5759,162.229 52.5,164C 67.0059,164.827 81.3393,164.661 95.5,163.5C 146.569,165.475 197.236,161.808 247.5,152.5 Z"/></g>
<g><path style="opacity:1" fill="#5d5b57" d="M 295.5,154.5 C 295.5,155.5 295.5,156.5 295.5,157.5C 294.127,157.343 292.793,157.51 291.5,158C 290.449,159.385 289.116,160.385 287.5,161C 273.328,164.501 258.995,167.168 244.5,169C 190.879,171.982 137.212,173.149 83.5,172.5C 64.7809,172.832 46.1142,171.998 27.5,170C 17.8611,168.091 8.52777,165.258 -0.5,161.5C -0.5,160.833 -0.5,160.167 -0.5,159.5C 8.61557,162.411 17.9489,164.578 27.5,166C 74.0741,170.208 120.741,171.541 167.5,170C 205.777,169.721 243.777,166.721 281.5,161C 284.343,159.217 287.343,157.717 290.5,156.5C 289.624,155.749 288.624,155.249 287.5,155C 290.146,154.503 292.813,154.336 295.5,154.5 Z"/></g>
<g><path style="opacity:1" fill="#464642" d="M 312.5,149.5 C 312.5,150.5 312.5,151.5 312.5,152.5C 307.193,154.82 302.193,157.653 297.5,161C 284.868,162.526 272.535,165.192 260.5,169C 242.82,170.191 225.154,171.525 207.5,173C 165.998,173.831 124.665,173.665 83.5,172.5C 137.212,173.149 190.879,171.982 244.5,169C 258.995,167.168 273.328,164.501 287.5,161C 289.116,160.385 290.449,159.385 291.5,158C 292.793,157.51 294.127,157.343 295.5,157.5C 295.5,156.5 295.5,155.5 295.5,154.5C 301.375,153.455 307.041,151.789 312.5,149.5 Z"/></g>
<g><path style="opacity:1" fill="#2c2b28" d="M 312.5,152.5 C 312.5,154.167 312.5,155.833 312.5,157.5C 289.193,166.864 264.86,172.698 239.5,175C 220.846,176.165 202.179,176.999 183.5,177.5C 129.358,177.811 75.3575,175.645 21.5,171C 17.0241,169.189 12.3574,168.189 7.5,168C 5.26428,165.716 2.59761,164.216 -0.5,163.5C -0.5,162.833 -0.5,162.167 -0.5,161.5C 8.52777,165.258 17.8611,168.091 27.5,170C 46.1142,171.998 64.7809,172.832 83.5,172.5C 124.665,173.665 165.998,173.831 207.5,173C 225.154,171.525 242.82,170.191 260.5,169C 272.535,165.192 284.868,162.526 297.5,161C 302.193,157.653 307.193,154.82 312.5,152.5 Z"/></g>
<g><path style="opacity:1" fill="#171512" d="M 312.5,157.5 C 312.5,158.5 312.5,159.5 312.5,160.5C 291.071,167.23 269.571,173.564 248,179.5C 239.199,179.287 230.366,179.287 221.5,179.5C 220.062,179.719 218.729,180.219 217.5,181C 181.328,180.919 145.161,181.086 109,181.5C 95.8201,181.083 82.6534,180.416 69.5,179.5C 67.2412,179.532 65.0745,179.866 63,180.5C 45.1833,177.471 27.35,174.304 9.5,171C 6.18323,170.502 2.8499,170.335 -0.5,170.5C -0.5,168.167 -0.5,165.833 -0.5,163.5C 2.59761,164.216 5.26428,165.716 7.5,168C 12.3574,168.189 17.0241,169.189 21.5,171C 75.3575,175.645 129.358,177.811 183.5,177.5C 202.179,176.999 220.846,176.165 239.5,175C 264.86,172.698 289.193,166.864 312.5,157.5 Z"/></g>
</svg>
